<svg width="1759" height="1759" xmlns="http://www.w3.org/2000/svg" xmlns:xlink="http://www.w3.org/1999/xlink" xml:space="preserve" overflow="hidden"><defs><clipPath id="clip0"><rect x="76" y="65" width="1759" height="1759"/></clipPath></defs><g clip-path="url(#clip0)" transform="translate(-76 -65)"><rect x="76" y="65" width="1759" height="1759" fill="#F6CA38"/><path d="M940.592 284.625C992.858 281.591 1045 290.007 1095.9 301.18 1157.05 315.071 1216.78 335.233 1273.9 361.203 1308.78 377.684 1342.82 396.477 1373.44 420.172 1394.28 436.597 1414.16 455.428 1426.79 479.159 1435.15 494.568 1437.72 513.453 1431.71 530.138 1423.38 553.352 1406.09 571.83 1388.08 587.904 1339.44 629.246 1281.07 656.714 1222.09 679.484 1150.65 706.342 1076.19 725.708 1000.36 734.31 947.818 740.543 894.763 735.142 842.846 726.319 772.186 714.092 702.7 694.67 636.222 667.609 600.663 652.83 565.874 635.664 534.056 613.745 515.846 601.019 498.515 586.61 484.725 569.019 475.28 556.663 467.413 542.087 467.009 526.161 466.716 510.346 473.611 495.474 482.267 482.674 493.472 466.433 507.483 452.32 522.576 439.742 568.79 401.952 622.523 374.835 677.209 351.825 710.109 338.229 743.743 326.465 777.853 316.329 830.962 300.81 885.337 288.657 940.592 284.625Z" fill="#41B349" fill-rule="evenodd"/><path d="M1503.67 558C1525.32 590.631 1543.89 625.312 1559.16 661.433 1570.94 688.321 1579.64 716.409 1588.32 744.423 1624.97 872.084 1624 1010.51 1584.56 1137.4 1565.42 1201.44 1537.43 1263.06 1499.72 1318.26 1481.11 1345.08 1460.29 1370.71 1435.18 1391.67 1424.43 1400.38 1412.83 1408.58 1399.58 1412.91 1389.08 1416.32 1378.53 1411.06 1369.28 1406.52 1338.78 1390.02 1314.6 1364.24 1292.65 1337.78 1252.62 1287.7 1221.94 1230.3 1200.54 1169.86 1172.74 1094.06 1159.82 1012.82 1162.3 932.083 1164.1 878.252 1172.41 824.661 1186.93 772.844 1258.77 750.425 1329.39 721.746 1392.81 680.62 1420.48 662.411 1446.63 641.452 1468.38 616.3 1483.15 598.959 1495.8 579.514 1503.67 558Z" fill="#708FC5" fill-rule="evenodd"/><path d="M330.571 741.111C348.473 685.897 373.474 633.028 404.399 584 414.396 604.608 428.428 623.075 444.624 639.159 472.596 666.803 505.667 688.63 540.096 707.189 589.51 733.836 642.263 753.521 695.694 770.251 725.5 911.131 716.439 1059.8 671.335 1196.38 652.296 1253.11 627.167 1308.36 591.95 1356.83 577.588 1375.91 561.85 1394.67 541.655 1407.71 534.703 1412.05 526.247 1416.17 518.067 1412.71 497.45 1405.4 480.117 1391.22 464.122 1376.63 413.02 1328.14 375.602 1266.76 347.3 1202.49 330.792 1162.9 317.016 1122.02 308.359 1079.91 284.275 967.749 293.392 849.324 330.571 741.111Z" fill="#DA4A37" fill-rule="evenodd"/><path d="M777.446 792C853.323 808.61 931.62 819.868 1009.29 810.991 1040.46 807.484 1071.45 802.224 1102.08 795.433 1074.46 920.674 1080.15 1053.54 1120.9 1175.24 1145.04 1250.37 1181.59 1321.74 1230.43 1383.66 1261.35 1421.95 1297.3 1457.89 1342 1479.46 1290.37 1516.65 1233.51 1546.62 1173.43 1567.37 1016.1 1622.73 837.861 1615.13 685.98 1545.98 645.519 1527.83 606.985 1505.37 571 1479.41 597.081 1466.17 618.43 1445.32 637.339 1423.25 682.531 1368.95 713.858 1304.41 737.939 1238.24 788.029 1096.02 802.665 940.902 777.446 792Z" fill="#F6CA38" fill-rule="evenodd"/></g></svg>