<?xml version="1.0" encoding="UTF-8" ?>
<!DOCTYPE svg PUBLIC "-//W3C//DTD SVG 1.1//EN" "http://www.w3.org/Graphics/SVG/1.1/DTD/svg11.dtd">
<svg width="1050px" height="230px" viewBox="0 0 1050 230" version="1.1" xmlns="http://www.w3.org/2000/svg">
<g id="#00adefff">
<path fill="#00adef" opacity="1.00" d=" M 100.91 3.56 C 117.37 0.56 134.15 4.11 149.86 9.11 C 163.55 13.94 177.69 19.35 188.20 29.77 C 191.72 33.19 194.99 37.98 193.73 43.13 C 192.48 48.07 188.59 51.71 184.85 54.89 C 171.80 65.10 155.89 70.75 140.08 75.08 C 132.74 76.72 125.38 78.41 117.86 78.89 C 113.66 79.45 109.35 79.48 105.15 78.87 C 100.40 78.57 95.69 77.86 91.01 77.04 C 89.32 76.65 87.61 76.37 85.90 76.06 C 72.92 73.07 60.03 69.12 48.20 62.89 C 41.10 58.79 33.21 54.37 29.76 46.51 C 27.59 41.07 31.60 35.93 35.07 32.13 C 41.61 25.62 49.78 21.02 58.01 16.98 C 71.65 10.68 86.10 6.09 100.91 3.56 Z" />
<path fill="#00adef" opacity="1.00" d=" M 312.12 27.97 C 318.40 27.29 325.27 26.22 331.22 28.92 C 336.89 31.29 337.60 40.21 332.63 43.66 C 330.14 45.61 326.86 45.64 323.86 45.94 C 316.82 45.96 309.47 48.32 305.02 54.05 C 298.32 62.71 296.89 74.12 296.53 84.73 C 300.98 84.43 305.47 84.55 309.90 83.90 C 314.24 83.64 318.62 83.32 322.95 83.90 C 325.73 84.50 328.69 85.11 330.85 87.11 C 334.09 90.03 334.28 95.40 331.73 98.83 C 330.09 100.86 327.43 101.40 325.08 102.19 C 315.24 102.22 305.44 102.86 295.63 103.58 C 295.44 111.08 295.09 118.57 294.84 126.07 C 294.83 146.72 297.12 167.51 293.97 188.04 C 293.40 191.85 292.26 196.49 288.23 198.00 C 282.20 200.66 274.18 195.87 274.85 189.00 C 276.33 177.72 277.19 166.35 276.94 154.97 C 276.69 138.42 276.57 121.87 276.62 105.32 C 269.86 105.05 262.95 107.41 256.36 105.21 C 250.27 102.79 249.72 92.76 255.48 89.59 C 262.26 85.86 270.37 86.64 277.83 86.42 C 279.25 71.89 280.18 56.54 287.63 43.61 C 292.57 34.67 302.23 29.37 312.12 27.97 Z" />
<path fill="#00adef" opacity="1.00" d=" M 366.14 38.03 C 366.05 33.96 366.84 28.89 371.10 27.13 C 374.75 25.87 379.44 25.80 382.57 28.42 C 384.96 30.57 385.32 33.97 385.35 37.00 C 385.50 60.01 384.36 82.99 384.46 106.00 C 383.86 126.66 383.18 147.33 382.63 167.99 C 382.19 173.35 383.06 179.30 379.91 184.01 C 378.64 186.02 376.19 186.56 374.12 187.32 C 373.30 187.31 371.66 187.29 370.84 187.28 C 366.19 186.72 362.93 182.55 363.18 177.95 C 363.05 152.95 365.42 128.00 365.26 102.99 C 365.26 81.33 366.26 59.69 366.14 38.03 Z" />
<path fill="#00adef" opacity="1.00" d=" M 574.13 27.97 C 580.40 27.29 587.26 26.23 593.21 28.92 C 599.46 31.53 599.51 41.80 593.27 44.49 C 587.67 46.84 581.16 45.25 575.57 47.76 C 569.32 50.15 564.88 55.72 562.53 61.84 C 559.71 69.11 558.68 76.97 558.52 84.74 C 562.97 84.42 567.47 84.54 571.90 83.90 C 576.24 83.64 580.62 83.31 584.95 83.91 C 587.73 84.49 590.69 85.13 592.85 87.13 C 596.05 90.03 596.26 95.34 593.77 98.75 C 592.14 100.84 589.45 101.38 587.08 102.19 C 577.24 102.22 567.43 102.87 557.62 103.58 C 557.42 111.07 557.08 118.55 556.83 126.04 C 556.82 146.37 559.02 166.82 556.11 187.06 C 555.53 190.56 554.98 194.59 552.04 196.98 C 549.41 199.07 545.90 198.61 542.80 198.31 C 540.75 196.86 538.40 195.44 537.45 192.99 C 536.17 189.72 537.22 186.24 537.50 182.91 C 539.64 167.69 538.76 152.29 538.73 136.98 C 538.50 126.43 538.65 115.88 538.61 105.32 C 531.83 105.03 524.90 107.42 518.29 105.20 C 514.24 103.76 513.12 98.86 513.60 95.03 C 514.23 91.40 517.55 89.01 520.88 88.03 C 527.03 86.25 533.49 86.47 539.82 86.41 C 540.70 75.76 541.79 65.02 544.80 54.73 C 547.05 47.27 550.80 39.94 557.00 34.99 C 561.92 31.12 567.99 28.95 574.13 27.97 Z" />
<path fill="#00adef" opacity="1.00" d=" M 630.71 28.76 C 635.74 23.99 646.91 26.00 647.13 33.99 C 647.81 52.32 646.65 70.67 646.58 89.00 C 646.40 117.69 645.16 146.36 644.34 175.03 C 644.44 180.33 642.12 186.57 636.12 187.32 C 635.30 187.31 633.66 187.29 632.83 187.28 C 628.24 186.73 624.91 182.61 625.18 178.03 C 625.00 160.34 626.32 142.68 626.83 125.00 C 627.44 113.34 627.12 101.66 627.37 89.99 C 627.55 72.97 628.23 55.96 628.12 38.95 C 628.22 35.46 628.10 31.47 630.71 28.76 Z" />
<path fill="#00adef" opacity="1.00" d=" M 683.93 50.08 C 682.67 43.25 689.15 36.25 696.09 37.25 C 703.27 37.16 708.67 45.46 706.09 52.09 C 704.09 57.86 697.47 60.70 691.71 59.34 C 688.01 57.50 684.46 54.42 683.93 50.08 Z" />
<path fill="#00adef" opacity="1.00" d=" M 199.71 58.71 C 202.51 55.69 204.59 52.10 206.18 48.31 C 219.03 68.34 225.72 92.24 225.01 116.04 C 224.19 138.24 217.46 160.46 204.74 178.77 C 199.98 185.02 194.83 191.97 186.99 194.40 C 182.53 192.84 178.59 190.06 175.35 186.65 C 159.72 170.54 151.16 148.52 148.76 126.42 C 147.24 112.46 148.62 98.23 152.47 84.74 C 153.12 84.58 154.43 84.27 155.08 84.12 C 156.06 83.74 157.05 83.37 158.04 83.02 C 159.04 82.70 160.04 82.39 161.05 82.09 C 175.08 76.55 189.32 69.99 199.71 58.71 Z" />
<path fill="#00adef" opacity="1.00" d=" M 18.72 53.26 C 21.28 58.69 25.56 63.05 30.15 66.82 C 41.35 75.14 54.35 80.66 67.65 84.64 C 69.51 90.22 69.85 96.16 70.53 101.96 C 72.51 127.54 67.84 153.99 55.47 176.59 C 51.31 183.50 46.72 191.03 39.05 194.43 C 31.87 191.67 26.56 185.85 21.85 180.00 C 10.72 165.83 4.10 148.51 1.21 130.83 C -2.80 103.93 4.55 76.19 18.72 53.26 Z" />
<path fill="#00adef" opacity="1.00" d=" M 978.97 64.81 C 988.87 59.14 1000.81 58.64 1011.89 59.98 C 1020.61 61.24 1029.11 65.36 1034.53 72.47 C 1043.02 83.33 1044.77 97.60 1045.50 110.94 C 1045.80 130.19 1045.04 150.69 1034.73 167.61 C 1029.36 176.99 1020.16 183.57 1010.12 187.17 C 998.73 190.58 986.47 190.49 974.90 188.10 C 970.96 186.59 965.18 186.23 963.79 181.47 C 962.86 177.19 963.10 172.71 963.62 168.39 C 963.76 166.58 965.63 165.17 967.41 165.80 C 976.32 168.36 985.58 171.30 994.97 169.79 C 1004.33 169.45 1012.67 162.89 1016.49 154.53 C 1019.30 148.10 1020.54 141.07 1020.71 134.08 C 1008.90 141.23 994.13 142.90 980.89 139.28 C 973.76 137.26 967.29 132.70 963.68 126.15 C 958.64 117.02 957.97 106.13 958.97 95.94 C 960.17 83.21 967.34 70.67 978.97 64.81 M 992.36 81.24 C 986.58 84.68 984.13 91.66 983.74 98.06 C 983.53 103.34 983.70 108.87 985.90 113.76 C 987.53 117.53 991.10 120.21 995.09 121.05 C 1003.80 122.68 1013.12 120.43 1020.28 115.23 C 1019.92 105.39 1019.97 94.86 1015.03 86.02 C 1012.41 81.16 1006.89 79.07 1001.64 78.85 C 998.48 79.32 995.11 79.41 992.36 81.24 Z" />
<path fill="#00adef" opacity="1.00" d=" M 894.23 63.14 C 899.34 59.24 906.13 60.96 912.07 60.66 C 914.38 60.95 918.84 60.71 918.65 64.09 C 918.72 98.63 918.66 133.19 918.68 167.74 C 925.47 167.73 932.27 167.68 939.06 167.76 C 939.60 167.98 940.68 168.43 941.22 168.65 C 944.08 174.38 944.01 181.71 941.11 187.42 C 926.08 187.99 911.01 187.51 895.96 187.67 C 886.61 187.55 877.25 187.91 867.91 187.46 C 864.92 181.78 865.01 174.43 867.67 168.64 C 868.23 168.41 869.36 167.96 869.92 167.74 C 877.64 167.71 885.35 167.71 893.07 167.73 C 893.17 140.46 893.12 113.19 893.10 85.92 C 885.98 89.42 879.21 93.60 872.16 97.23 C 870.43 97.86 867.87 99.50 866.61 97.35 C 865.05 93.81 865.46 89.76 865.58 85.98 C 865.63 83.52 866.50 80.89 868.80 79.65 C 877.24 74.09 885.78 68.68 894.23 63.14 Z" />
<path fill="#00adef" opacity="1.00" d=" M 786.94 73.74 C 791.47 71.93 797.02 70.88 801.46 73.40 C 805.43 75.88 805.61 80.87 806.06 85.02 C 806.67 90.92 809.42 97.11 806.98 102.92 C 804.76 107.76 798.61 108.75 794.01 107.17 C 789.26 104.70 789.59 98.51 788.53 94.01 C 783.60 94.87 778.92 96.73 774.13 98.09 C 766.74 100.27 758.96 102.76 753.45 108.44 C 751.35 110.49 750.36 113.33 750.02 116.20 C 753.96 117.29 757.93 118.25 761.95 119.01 C 773.82 121.64 786.36 125.01 795.37 133.67 C 803.21 141.13 806.29 152.59 804.82 163.14 C 804.07 168.58 801.56 173.81 797.57 177.61 C 792.54 182.59 785.81 185.34 779.10 187.22 C 774.15 188.37 769.05 188.39 764.06 189.16 C 752.63 188.77 740.84 187.09 730.82 181.23 C 725.93 178.48 721.95 172.94 723.45 167.11 C 724.50 162.69 729.00 160.43 733.10 159.57 C 736.08 160.34 738.49 162.24 740.76 164.23 C 743.55 166.70 747.36 167.16 750.81 168.15 C 756.79 168.98 762.84 169.97 768.86 168.90 C 774.01 168.08 779.70 167.41 783.68 163.69 C 787.74 159.51 785.88 152.44 782.46 148.42 C 775.97 141.23 765.77 140.15 756.86 138.10 C 749.39 136.03 740.97 134.56 735.55 128.50 C 730.10 122.11 730.32 112.85 732.36 105.15 C 734.96 95.63 743.13 88.74 752.08 85.27 C 763.44 80.65 775.63 78.49 786.94 73.74 Z" />
<path fill="#00adef" opacity="1.00" d=" M 441.95 84.77 C 451.63 81.59 462.59 80.89 472.19 84.70 C 483.35 89.86 489.98 101.30 493.05 112.78 C 496.66 126.51 496.56 141.28 492.53 154.91 C 488.60 166.69 481.45 178.14 470.30 184.25 C 462.04 188.88 452.16 189.54 442.97 188.06 C 427.73 184.90 415.95 171.94 411.79 157.28 C 407.80 143.37 408.37 128.08 413.54 114.55 C 418.66 101.52 428.33 89.38 441.95 84.77 M 437.46 111.46 C 431.83 119.12 428.86 128.60 428.51 138.07 C 428.21 146.08 429.48 154.73 434.82 161.04 C 439.60 167.37 448.17 170.62 455.92 168.76 C 461.77 167.73 466.92 164.19 470.59 159.60 C 475.86 153.38 477.63 144.97 477.51 137.00 C 477.57 127.76 477.20 117.82 472.14 109.78 C 469.36 105.15 464.26 102.30 458.93 101.95 C 450.71 100.83 442.39 104.93 437.46 111.46 Z" />
<path fill="#00adef" opacity="1.00" d=" M 687.34 84.59 C 692.99 81.09 701.39 85.25 701.46 92.08 C 701.95 103.39 700.46 114.66 700.06 125.95 C 699.15 140.96 700.17 155.98 700.35 171.00 C 700.30 174.13 700.35 177.66 698.14 180.16 C 694.59 184.81 686.50 184.71 683.17 179.86 C 681.50 177.60 681.25 174.70 681.24 171.98 C 681.20 158.65 680.23 145.32 680.67 131.99 C 681.08 119.27 682.52 106.60 682.54 93.87 C 682.53 90.24 683.96 86.34 687.34 84.59 Z" />
<path fill="#00adef" opacity="1.00" d=" M 82.47 88.28 C 91.56 90.21 100.77 91.80 110.09 91.90 C 119.43 92.36 128.72 90.54 137.93 89.09 C 131.98 116.44 135.57 145.72 148.20 170.71 C 155.38 184.63 164.90 198.30 179.00 205.88 C 166.96 214.40 153.37 220.53 139.09 224.15 C 112.95 229.78 84.60 227.03 60.91 214.19 C 56.04 211.92 51.75 208.64 47.14 205.91 C 56.08 200.73 62.16 191.96 67.25 183.20 C 82.88 154.49 87.55 120.40 82.47 88.28 Z" />
</g>
</svg>
