<svg width="1454" height="1455" xmlns="http://www.w3.org/2000/svg" xmlns:xlink="http://www.w3.org/1999/xlink" xml:space="preserve" overflow="hidden"><defs><filter id="fx0" x="-10%" y="-10%" width="120%" height="120%" filterUnits="userSpaceOnUse" primitiveUnits="userSpaceOnUse"><feComponentTransfer color-interpolation-filters="sRGB"><feFuncR type="discrete" tableValues="0 0"/><feFuncG type="discrete" tableValues="0 0"/><feFuncB type="discrete" tableValues="0 0"/><feFuncA type="linear" slope="0.4" intercept="0"/></feComponentTransfer><feGaussianBlur stdDeviation="6.11111 6.11111"/></filter></defs><g transform="translate(-2638 -873)"><rect x="2638" y="873" width="1454" height="1455" fill="#FFFFFF" fill-opacity="0"/><path d="M2858 1095.26C2858 1002.12 2916.72 956 3009.87 956L3747.52 956C3840.67 956 3870 1035.71 3870 1128.85L3870 2076.35C3870 2169.49 3849.07 2245 3755.92 2245L2967.88 2245C2874.73 2245 2858 2169.49 2858 2076.35L2858 1095.26Z" stroke="#999999" stroke-width="13.75" stroke-miterlimit="8" stroke-opacity="0.6" fill="#FFFFFF" fill-rule="evenodd"/><path d="M2867 1108.78C2867 1017.29 2924.97 972 3016.92 972L3745.09 972C3837.05 972 3866 1050.28 3866 1141.77L3866 2072.36C3866 2163.84 3845.34 2238 3753.38 2238L2975.47 2238C2883.51 2238 2867 2163.84 2867 2072.36L2867 1108.78Z" fill="#F5F5F5" fill-rule="evenodd"/><path d="M2869 2075 3868 2075C3868 2166.13 3847.34 2240 3755.38 2240L2977.47 2240C2885.51 2240 2869 2166.13 2869 2075Z" fill="#F9F9F9" fill-rule="evenodd"/><rect x="2867" y="1605" width="999" height="470" fill="#F9F9F9"/><g filter="url(#fx0)" transform="translate(3683 942)"><g><path d="M35.8476 173.728C15.2336 179.413 14.8955 95.0946 0 17.1865 94.8055 14.7676 147.245-13.6617 149 8.23475 149 99.6338 128.243 173.728 35.8476 173.728Z" fill="#FFFFFF" fill-rule="evenodd" transform="matrix(1 0 0 -1 20.25 194)"/></g></g><path d="M35.8476 173.728C15.2336 179.413 14.8955 95.0946 0 17.1865 94.8055 14.7676 147.245-13.6617 149 8.23475 149 99.6338 128.243 173.728 35.8476 173.728Z" fill="#FFFFFF" fill-rule="evenodd" transform="matrix(1 0 0 -1 3717 1136)"/><path d="M3170 1210.5C3170 1097.56 3259.54 1006 3370 1006 3480.46 1006 3570 1097.56 3570 1210.5 3570 1323.44 3480.46 1415 3370 1415 3259.54 1415 3170 1323.44 3170 1210.5Z" fill="#F6CA38" fill-rule="evenodd"/><path d="M3413.46 1077.42C3467.46 1077.52 3511.16 1112.62 3511.08 1155.82 3510.99 1199.01 3467.16 1233.95 3413.16 1233.84L3413.23 1194.74C3445.63 1194.8 3471.93 1177.34 3471.97 1155.74 3472.01 1134.14 3445.78 1116.59 3413.39 1116.52Z" fill="#00B0F0" fill-rule="evenodd"/><rect x="3265" y="1077" width="40.0002" height="277" fill="#00B0F0"/><rect x="3265" y="1077" width="133" height="40.9999" fill="#00B0F0"/><rect x="3265" y="1194" width="133" height="40.0002" fill="#00B0F0"/><g><g><g><path d="M5.33643 18.9543C5.44714 11.6029 11.2043 6.44357 17.36 3.49857 33.7236 3.38786 50.0871 3.34357 66.4507 3.47643 78.5407 3.72 90.83 10.4736 95.1257 22.2314 98.6243 32.5943 102.676 42.7578 106.042 53.165 113.814 73.4921 121.077 94.0407 128.473 114.523 132.082 121.985 134.584 129.979 136.334 138.083 119.926 138.526 103.496 138.127 87.0878 138.349L86.1135 138.371C76.4814 108.035 65.4764 78.1421 55.3128 47.9836 54.9143 50.3971 54.56 52.8328 54.5157 55.2907 55.0028 117.313 53.165 179.335 53.94 241.357 53.7186 244.435 54.7371 248.133 52.235 250.569 51.0393 213.214 52.235 175.814 51.6371 138.437 36.0928 138.016 20.5707 138.769 5.04857 137.928 4.98214 131.794 5.24786 125.639 4.22928 119.571 6.13357 86.0914 3.96357 52.4564 5.33643 18.9543Z" fill="#008BBC" transform="matrix(1 0 0 1.00051 2975 1468.18)"/><path d="M212.505 24.0029C216.557 13.8836 225.126 3.54286 236.929 3.49857 254.111 3.27714 271.294 3.43214 288.477 3.49857 293.814 7.39571 299.46 12.4221 299.858 19.5079 300.877 93.5093 298.796 167.489 299.46 241.49 299.46 244.612 299.836 247.978 297.711 250.546 297.113 245.276 296.692 239.984 296.67 234.67 296.781 202.585 296.714 170.5 296.714 138.415 281.657 137.64 266.467 139.677 251.521 137.131L249.506 136.776C249.749 108.013 249.993 79.1828 249.395 50.4193 246.361 53.5414 246.206 58.1471 244.811 62.0886 235.644 87.4643 226.588 112.906 217.266 138.238L216.026 138.238C200.659 138.105 185.203 139.124 169.924 137.042 183.985 99.3107 198.422 61.7121 212.505 24.0029Z" fill="#008BBC" transform="matrix(1 0 0 1.00051 2975 1468.18)"/><path d="M358.714 6.59857C362.191 3.01143 367.527 3.49857 372.111 3.36571 397.885 3.47643 423.681 3.36571 449.456 3.45428 478.573 5.15928 509.418 12.7321 530.764 33.8786 550.538 51.6593 560.369 78.0536 563.447 103.961 564.089 119.483 564.709 135.182 562.296 150.571L561.831 148.202C561.388 145.412 560.967 142.6 560.568 139.788 548.611 139.987 536.61 140.341 524.675 139.367 519.715 138.858 514.733 139.279 510.038 140.961 511.035 121.166 509.95 100.661 501.846 82.2828 493.077 62.4207 473.303 48.0278 451.781 45.4814 436.768 42.6028 421.489 43.8871 406.321 43.5771 405.591 75.3964 407.207 107.304 405.613 139.079 388.297 139.965 370.915 140.651 353.599 139.124 353.333 100.152 353.599 61.1807 353.466 22.2093 353.488 16.7179 354.02 10.2521 358.714 6.59857Z" fill="#008BBC" transform="matrix(1 0 0 1.00051 2975 1468.18)"/><path d="M608.596 6.73143C609.792 5.95643 612.161 4.40643 613.335 3.63143 656.314 3.12214 699.293 3.58714 742.273 3.38786 750.975 12.7986 745.793 26.5936 747.1 38.0857 745.638 41.6728 743.668 45.0164 740.944 47.8064 710.719 47.7178 680.472 47.6736 650.247 47.8286 650.181 65.41 650.269 83.0135 650.181 100.595 676.531 98.9343 704.586 97.9157 728.788 110.36 740.324 117.224 752.857 126.192 755.935 140.098 734.921 140.12 713.908 140.297 692.916 139.411 689.218 139.19 685.742 140.585 682.31 141.604 668.448 139.301 653.967 136.577 640.106 139.921 630.961 140.496 621.793 140.563 612.626 140.541 611.541 139.81 609.349 138.371 608.264 137.64 606.913 133.964 605.762 130.178 605.983 126.236 606.006 90.83 606.006 55.4457 605.983 20.0393 605.762 15.4336 607.113 11.0271 608.596 6.73143Z" fill="#008BBC" transform="matrix(1 0 0 1.00051 2975 1468.18)"/><path d="M169.924 137.042C185.203 139.124 200.659 138.105 216.026 138.238 211.796 151.346 206.239 164.012 202.541 177.298 202.142 177.741 201.323 178.626 200.924 179.069 195.344 198.444 187.528 217.266 181.018 236.397 178.715 242.021 178.051 248.686 173.379 253.026 167.422 257.256 159.65 255.728 152.808 256.215 145.146 255.905 136.909 257.056 129.779 253.669 124.376 250.856 123.247 244.524 121.409 239.298 117.556 227.274 112.729 215.583 109.474 203.382 109.076 202.917 108.301 201.965 107.924 201.5 101.968 180.154 93.155 159.672 87.0878 138.349 103.496 138.127 119.926 138.526 136.334 138.083 141.316 153.406 147.117 168.485 152.786 183.586 158.122 167.931 164.566 152.675 169.924 137.042Z" fill="#00B0F0" transform="matrix(1 0 0 1.00051 2975 1468.18)"/><path d="M5.04857 137.928C20.5707 138.769 36.0928 138.016 51.6371 138.437 52.235 175.814 51.0393 213.214 52.235 250.569L52.3457 252.739C43.0014 257.388 32.2621 256.016 22.1871 256.126 16.5629 256.281 11.0936 255.019 5.95643 252.783 4.11857 214.564 5.89 176.191 5.04857 137.928Z" fill="#00B0F0" transform="matrix(1 0 0 1.00051 2975 1468.18)"/><path d="M251.521 137.131C266.467 139.677 281.657 137.64 296.714 138.415 296.714 170.5 296.781 202.585 296.67 234.67 296.692 239.984 297.113 245.276 297.711 250.546L297.932 252.694C287.879 257.521 276.431 256.038 265.67 256.038 260.754 256.148 256.126 254.599 251.609 252.871 249.838 237.814 250.923 222.558 250.569 207.434L248.332 205.906C252.628 201.633 251.366 191.58 249.151 186 253.115 181.594 248.111 175.704 250.546 170.744 250.081 161.023 252.318 150.793 249.351 141.426 249.882 140.364 250.967 138.216 251.521 137.131Z" fill="#00B0F0" transform="matrix(1 0 0 1.00051 2975 1468.18)"/><path d="M353.599 139.124C370.915 140.651 388.297 139.965 405.613 139.079 403.354 163.968 405.303 189.078 404.572 214.055 429.261 213.811 456.386 217.996 478.308 203.803 499.897 190.871 508.333 164.787 510.038 140.961 514.733 139.279 519.715 138.858 524.675 139.367 536.61 140.341 548.611 139.987 560.568 139.788 560.967 142.6 561.388 145.412 561.831 148.202 560.436 181.726 544.714 216.07 515.951 234.648 492.546 250.391 463.693 254.067 436.192 255.396 413.983 255.263 391.773 255.484 369.564 255.285 361.615 255.617 354.374 249.749 353.688 241.667 353.643 207.501 353.821 173.312 353.599 139.124Z" fill="#00B0F0" transform="matrix(1 0 0 1.00051 2975 1468.18)"/><path d="M682.31 141.604C685.742 140.585 689.218 139.19 692.916 139.411 713.908 140.297 734.921 140.12 755.935 140.098 766.431 170.234 763.286 207.235 740.701 231.216 719.598 253.536 687.358 260.688 657.665 259.913 639.508 258.806 621.063 256.016 604.323 248.509 600.514 246.937 598.876 243.04 597.016 239.719 596.617 229.887 596.285 220.034 597.326 210.246 597.946 208.94 599.208 206.327 599.828 205.021 603.57 204.556 607.157 205.353 610.279 207.479 629.853 218.085 652.882 220.72 674.693 217.354 685.166 215.295 695.662 210.047 701.286 200.592 708.682 188.945 708.859 174.109 704.851 161.244 700.755 151.59 692.075 144.903 682.31 141.604Z" fill="#00B0F0" transform="matrix(1 0 0 1.00051 2975 1468.18)"/></g></g></g></g></svg>