<svg width="1454" height="1455" xmlns="http://www.w3.org/2000/svg" xmlns:xlink="http://www.w3.org/1999/xlink" xml:space="preserve" overflow="hidden"><defs><filter id="fx0" x="-10%" y="-10%" width="120%" height="120%" filterUnits="userSpaceOnUse" primitiveUnits="userSpaceOnUse"><feComponentTransfer color-interpolation-filters="sRGB"><feFuncR type="discrete" tableValues="0 0"/><feFuncG type="discrete" tableValues="0 0"/><feFuncB type="discrete" tableValues="0 0"/><feFuncA type="linear" slope="0.4" intercept="0"/></feComponentTransfer><feGaussianBlur stdDeviation="6.11111 6.11111"/></filter></defs><g transform="translate(-2638 -873)"><rect x="2638" y="873" width="1454" height="1455" fill="#FFFFFF" fill-opacity="0"/><path d="M2858 1095.26C2858 1002.12 2916.72 956 3009.87 956L3747.52 956C3840.67 956 3870 1035.71 3870 1128.85L3870 2076.35C3870 2169.49 3849.07 2245 3755.92 2245L2967.88 2245C2874.73 2245 2858 2169.49 2858 2076.35L2858 1095.26Z" stroke="#999999" stroke-width="13.75" stroke-miterlimit="8" stroke-opacity="0.6" fill="#FFFFFF" fill-rule="evenodd"/><path d="M2867 1108.78C2867 1017.29 2924.97 972 3016.92 972L3745.09 972C3837.05 972 3866 1050.28 3866 1141.77L3866 2072.36C3866 2163.84 3845.34 2238 3753.38 2238L2975.47 2238C2883.51 2238 2867 2163.84 2867 2072.36L2867 1108.78Z" fill="#F5F5F5" fill-rule="evenodd"/><path d="M2869 2075 3868 2075C3868 2166.13 3847.34 2240 3755.38 2240L2977.47 2240C2885.51 2240 2869 2166.13 2869 2075Z" fill="#F9F9F9" fill-rule="evenodd"/><rect x="2867" y="1605" width="999" height="470" fill="#F9F9F9"/><g filter="url(#fx0)" transform="translate(3683 942)"><g><path d="M35.8476 173.728C15.2336 179.413 14.8955 95.0946 0 17.1865 94.8055 14.7676 147.245-13.6617 149 8.23475 149 99.6338 128.243 173.728 35.8476 173.728Z" fill="#FFFFFF" fill-rule="evenodd" transform="matrix(1 0 0 -1 20.25 194)"/></g></g><path d="M35.8476 173.728C15.2336 179.413 14.8955 95.0946 0 17.1865 94.8055 14.7676 147.245-13.6617 149 8.23475 149 99.6338 128.243 173.728 35.8476 173.728Z" fill="#FFFFFF" fill-rule="evenodd" transform="matrix(1 0 0 -1 3717 1136)"/><path d="M3170 1210.5C3170 1097.56 3259.54 1006 3370 1006 3480.46 1006 3570 1097.56 3570 1210.5 3570 1323.44 3480.46 1415 3370 1415 3259.54 1415 3170 1323.44 3170 1210.5Z" fill="#F6CA38" fill-rule="evenodd"/><path d="M3413.46 1077.42C3467.46 1077.52 3511.16 1112.62 3511.08 1155.82 3510.99 1199.01 3467.16 1233.95 3413.16 1233.84L3413.23 1194.74C3445.63 1194.8 3471.93 1177.34 3471.97 1155.74 3472.01 1134.14 3445.78 1116.59 3413.39 1116.52Z" fill="#00B0F0" fill-rule="evenodd"/><rect x="3265" y="1077" width="40.0002" height="277" fill="#00B0F0"/><rect x="3265" y="1077" width="133" height="40.9999" fill="#00B0F0"/><rect x="3265" y="1194" width="133" height="40.0002" fill="#00B0F0"/><g><g><g><path d="M134.159 16.9644C133.621 13.4439 137.131 10.6514 140.413 10.6115 146.117 10.1328 151.852 10.4918 157.576 10.3721 161.356 10.5915 165.465 9.9333 168.996 11.529 172.895 13.6134 171.918 18.4903 173.374 22.0208 175.738 32.004 177.593 42.1068 180.305 52.0002 182.759 64.9753 186.788 77.6413 188.533 90.756 192.862 110.673 197.928 130.429 202.037 150.396L203.503 150.186C203.224 150.904 202.655 152.331 202.376 153.049 200.601 148.331 199.953 143.305 198.666 138.458 194.697 122.361 191.425 106.115 187.386 90.038 175.907 90.3771 164.408 90.3172 152.929 90.0878L152.61 90.0878C149.488 78.6586 146.476 67.2093 143.694 55.7102 141.579 49.9158 140.652 43.7823 138.887 37.8782 137.331 30.9069 134.818 24.1052 134.159 16.9644Z" fill="#008BBC" transform="matrix(1 0 0 1.0001 2948.12 1457)"/><path d="M241.162 10.8209C250.596 10.0829 260.081 10.2524 269.516 10.7611 271.959 11.7285 274.343 13.3042 275.13 15.9671 276.257 20.1658 276.896 24.4942 278.342 28.6031 281.723 44.8095 287.198 60.4974 290.18 76.8035 290.429 77.1526 290.699 77.5017 290.958 77.8607 291.536 81.8001 292.444 85.6697 293.242 89.5692 293.232 90.9655 293.212 92.3617 293.172 93.7679 282.54 94.6456 271.859 93.9774 261.218 94.117 262.604 103.512 265.825 112.528 267.321 121.912L267.431 122.66C264.419 112.488 262.584 101.976 259.103 91.9428 257.069 84.0042 255.593 75.896 252.82 68.1767 251.065 76.9831 248.821 85.6797 246.687 94.3963L246.268 94.3763C236.783 93.8976 227.279 94.3364 217.785 94.0871 217.186 94.9847 216.598 95.8922 216.029 96.8197 216.328 92.631 217.475 88.5819 218.592 84.5627 222.023 67.1794 226.89 50.1352 230.55 32.8018 232.485 26.1796 233.363 19.2483 236.175 12.8854 237.841 12.2172 239.506 11.519 241.162 10.8209Z" fill="#008BBC" transform="matrix(1 0 0 1.0001 2948.12 1457)"/><path d="M344.873 10.771C353.011 10.2923 361.219 10.053 369.347 10.7511 372.608 10.9705 373.636 14.3115 374.374 16.9345 373.127 20.475 373.107 24.3246 371.85 27.8751 364.5 56.3884 357.349 84.9716 348.882 113.166 349.69 107.381 351.665 101.846 352.522 96.0817 342.14 96.351 331.748 95.9221 321.366 96.361 322.732 87.0859 324.927 77.9006 327.081 68.7652 327.549 67.0797 327.759 65.3443 327.948 63.609 329.434 59.7693 329.714 55.6205 331.03 51.7409 331.409 50.4245 331.758 49.098 332.107 47.7816 332.586 46.146 332.785 44.4405 332.955 42.7551 334.022 40.2119 334.65 37.5291 335.129 34.8264 335.578 33.2406 335.797 31.615 336.057 29.9894 337.373 25.7209 338.43 21.3526 338.949 16.9145 339.717 13.8927 341.881 11.6487 344.873 10.771Z" fill="#008BBC" transform="matrix(1 0 0 1.0001 2948.12 1457)"/><path d="M542.402 10.771C556.753 10.7411 571.115 10.771 585.466 10.7611 591.45 10.8409 597.494 10.3223 603.388 11.6188 609.631 11.4692 615.565 13.4738 621.579 14.8002 623.175 15.5283 624.81 16.2164 626.486 16.7649 636.489 20.5348 644.338 28.9023 648.357 38.706 648.676 39.7033 649.015 40.7006 649.354 41.7079 649.624 43.0842 649.973 44.4605 650.412 45.8069 650.88 49.1579 650.102 52.7482 651.638 55.8997 651.05 57.1065 650.611 58.3831 650.731 59.7494 650.342 73.0536 641.835 86.3379 629.089 90.8358 628.87 91.6536 628.65 92.4615 628.451 93.2693 626.097 93.7081 623.743 94.1968 621.35 94.2167 594.731 94.117 568.103 94.1968 541.494 94.1768 539.27 94.2267 537.246 93.2693 535.281 92.3717 534.563 120.955 535.291 149.568 534.912 178.161 534.812 178.56 534.603 179.358 534.493 179.757 533.805 166.054 534.374 152.311 534.194 138.597 534.284 99.0737 533.765 59.54 534.174 20.0162 534.284 17.8221 535.241 15.7377 536.498 13.9724 538.183 12.4665 540.397 11.7684 542.402 10.771M569.37 38.3469C569.37 53.0075 569.359 67.6581 569.37 82.3087 577.737 82.2988 586.104 82.2888 594.472 82.3287 599.828 82.4484 604.595 79.4165 608.624 76.1752 609.482 74.789 610.539 73.5423 611.716 72.4153 614.369 66.3915 615.884 59.5001 613.76 53.0673 611.825 45.1985 604.216 39.9626 596.427 39.1348 587.471 37.7186 578.385 38.5763 569.37 38.3469Z" fill="#008BBC" transform="matrix(1 0 0 1.0001 2948.12 1457)"/><path d="M398.489 19.7669C398.449 14.3913 403.914 10.9605 408.791 10.7611 437.434 10.7511 466.077 10.771 494.73 10.7511 496.525 10.6813 498.231 11.3495 499.926 11.8781 502.589 17.493 502.479 23.8758 502.18 29.9495 501.821 33.2506 501.193 36.7213 498.869 39.2545 477.477 39.8329 456.054 39.3343 434.652 39.5138 434.622 53.4364 434.682 67.349 434.612 81.2715 452.334 81.3812 470.066 81.2516 487.789 81.3314 490.003 80.8128 490.88 83.1964 491.519 84.7821 492.606 87.8937 493.244 91.2746 492.566 94.5558 491.898 98.9041 492.985 103.751 490.521 107.661 489.365 109.775 486.702 109.376 484.697 109.556 467.842 109.735 450.988 109.306 434.143 109.376 451.626 109.087 469.239 109.944 486.722 108.698 488.267 108.798 489.684 107.78 490.302 106.394 491.309 102.375 491.918 98.2459 491.748 94.0871 468.122 94.2666 444.485 94.127 420.859 94.1669 413.758 94.0572 406.587 94.6855 399.576 93.2992 399.087 99.7519 399.347 106.234 399.307 112.707 399.277 134.508 399.337 156.32 399.287 178.121 399.177 178.6 398.948 179.547 398.828 180.026 398.489 177.214 398.499 174.371 398.509 171.539 398.648 120.945 398.259 70.3609 398.489 19.7669Z" fill="#008BBC" transform="matrix(1 0 0 1.0001 2948.12 1457)"/><path d="M396.793 235.248C411.374 232.934 426.753 234.559 440.077 241.092 441.583 242.129 442.79 243.545 444.026 244.892 444.336 245.989 444.665 247.086 445.024 248.173 445.044 253.927 445.852 259.861 444.016 265.436 442.75 268.169 439.269 267.032 437.275 265.855 428.398 260.799 418.385 256.909 407.983 257.737 401.82 257.857 394.928 260.859 392.724 267.022 390.061 272.587 392.156 279.618 396.813 283.448 403.805 289.472 412.611 292.534 420.919 296.214 428.349 300.133 436.586 303.205 442.331 309.598 443.438 310.615 444.156 311.951 444.665 313.358 444.186 313.128 443.239 312.679 442.76 312.46 439.818 314.415 436.437 315.781 432.836 315.552 426.164 315.482 419.522 314.535 412.85 314.824 405.181 315.113 397.442 314.126 389.852 315.592 380.088 311.243 370.604 304.581 365.677 294.778 361.389 286.959 361.069 277.773 361.777 269.087 362.974 264.778 363.343 260.111 365.847 256.271 367.502 253.04 369.995 250.407 372 247.415 379.011 241.222 387.538 236.883 396.793 235.248Z" fill="#008BBC" transform="matrix(1 0 0 1.0001 2948.12 1457)"/><path d="M690.803 236.145C693.935 235.557 697.016 236.843 700.178 236.783 702.452 236.594 704.137 238.27 705.543 239.825 705.434 261.387 705.543 282.949 705.494 304.511 696.588 304.741 687.691 304.531 678.785 304.651 678.017 284.216 678.765 263.751 678.596 243.306 678.386 241.461 679.184 239.795 680.032 238.22 683.393 236.514 687.183 236.793 690.803 236.145Z" fill="#008BBC" transform="matrix(1 0 0 1.0001 2948.12 1457)"/><path d="M9.66402 243.156C11.2498 239.546 14.8401 236.624 18.9092 236.744 32.5625 236.754 46.2058 236.764 59.8591 236.744 70.0617 237.531 80.4936 239.357 89.4595 244.583 99.343 250.387 106.464 260.769 107.85 272.208 109.007 282.002 108.319 292.145 104.978 301.49L104.599 301.43C96.4108 299.924 88.0633 301.32 79.8154 300.682 77.5715 300.422 75.906 298.667 74.0509 297.56 77.4618 289.063 79.1572 279 74.6593 270.553 72.156 264.858 66.2619 261.527 60.3179 260.58 53.3466 259.672 46.3055 259.682 39.2844 259.692 39.1946 273.545 39.2046 287.397 39.2445 301.25 39.2645 303.704 39.0051 306.157 38.6661 308.59 38.2771 307.244 37.8981 305.908 37.5092 304.571 28.2042 304.601 18.8892 304.701 9.58424 304.531 9.61416 284.076 9.46456 263.611 9.66402 243.156Z" fill="#008BBC" transform="matrix(1 0 0 1.0001 2948.12 1457)"/><path d="M131.128 241.7C132.264 238.369 136.204 236.534 139.575 236.734 154.894 236.783 170.212 236.734 185.521 236.754 196.931 237.761 209.038 239.975 217.994 247.654 223.11 251.434 225.753 257.388 228.615 262.853 228.974 264.319 229.154 265.825 229.393 267.321 230.63 270.443 229.852 273.904 230.062 277.175 230.54 285.193 227.977 293.232 223.449 299.814 218.463 306.037 211.691 310.854 204.111 313.348L203.563 313.278C200.96 312.859 198.287 312.759 195.754 312.021 193.959 310.874 192.572 309.219 190.817 308.022 189.142 307.344 187.267 307.543 185.501 307.444 171.868 307.553 158.235 307.444 144.601 307.533 139.724 307.703 135.695 304.412 130.978 303.644L130.35 303.484C131.157 299.086 130.808 294.608 130.858 290.17 130.868 278.89 130.888 267.591 130.749 256.331 131.088 251.454 130.529 246.547 131.128 241.7M160.12 259.482C160.08 272.757 160.11 286.021 160.1 299.285 169.405 298.767 179.208 300.861 188.005 296.932 194.657 294.309 199.514 287.447 199.095 280.197 199.554 273.844 197.519 266.514 191.545 263.272 181.931 258.076 170.601 259.891 160.12 259.482Z" fill="#008BBC" transform="matrix(1 0 0 1.0001 2948.12 1457)"/><path d="M258.844 244.373C258.445 239.895 263.103 236.654 267.192 236.744 290.838 236.754 314.485 236.764 338.131 236.734 339.697 236.554 341.083 237.312 342.43 238.01 344.454 243.984 343.766 250.387 343.407 256.56 342.34 258.076 341.372 260.171 339.178 260.081 322.324 260.28 305.459 260.111 288.604 260.151 287.238 268.488 288.604 276.926 288.006 285.303 288.076 286.031 288.205 287.497 288.275 288.225 287.986 290.399 287.786 292.633 288.584 294.738 303.504 294.598 318.434 294.618 333.354 294.738 337.333 299.176 335.448 305.479 335.827 310.864 333.394 311.951 330.851 312.929 328.148 312.779 314.165 312.64 300.193 312.799 286.211 312.689 282.57 313.138 279.878 309.717 276.297 310.166 270.473 310.595 264.529 311.154 258.814 309.568 258.864 287.836 258.774 266.105 258.844 244.373Z" fill="#008BBC" transform="matrix(1 0 0 1.0001 2948.12 1457)"/><path d="M475.342 242.109C476.938 239.067 480.07 236.614 483.63 236.744 507.286 236.754 530.943 236.764 554.589 236.744 556.464 236.564 558.878 237.282 559.287 239.396 560.912 244.962 560.154 250.896 559.865 256.6 558.828 258.136 557.821 260.181 555.646 260.081 538.742 260.29 521.827 260.091 504.923 260.191 504.873 271.67 504.913 283.149 504.893 294.628 519.863 294.728 534.832 294.568 549.802 294.718 553.761 299.834 551.966 306.606 552.206 312.57 543.3 313.118 534.483 311.253 525.577 311.702 514.926 311.503 504.235 312.291 493.623 311.054 487.519 310.595 481.386 310.994 475.272 310.824 475.302 287.926 475.173 265.018 475.342 242.109Z" fill="#008BBC" transform="matrix(1 0 0 1.0001 2948.12 1457)"/><path d="M586.862 245.291C586.942 240.663 591.041 237.063 595.539 236.803 601.792 236.644 608.055 236.823 614.319 236.734 618.547 236.534 622.736 238 626.257 240.294 632.3 246.059 634.584 254.366 639.192 261.138 645.076 272.378 651.409 283.368 656.984 294.788 659.198 297.77 660.814 301.2 661.901 304.751 651.1 304.94 640.289 304.342 629.488 304.811L629.129 304.831C623.434 293.91 617.839 282.919 613.052 271.57 612.673 278.452 613.102 285.353 612.942 292.244 612.753 296.533 614.777 300.951 613.092 305.13 613.062 327.071 612.773 349.032 613.092 370.973 613.082 373.257 613.371 375.62 612.733 377.844 612.932 358.965 613.032 340.066 612.892 321.177 612.464 315.681 612.244 310.146 612.753 304.651 604.116 304.442 595.459 304.93 586.833 304.352 586.823 284.665 586.773 264.978 586.862 245.291Z" fill="#008BBC" transform="matrix(1 0 0 1.0001 2948.12 1457)"/><path d="M722.328 243.366C722.239 240.583 723.395 236.045 727.056 236.744 761.124 236.754 795.192 236.754 829.271 236.754 833.041 240.523 832.353 246.358 832.432 251.245 832.143 254.626 832.362 259.383 828.752 261.048 816.605 261.208 804.448 261.088 792.3 261.088 792.081 299.066 792.021 337.034 792.081 375.012 792.171 376.159 791.802 377.256 791.273 378.273 790.635 373.187 790.904 368.071 790.874 362.964 790.854 343.497 790.904 324.019 790.854 304.541 781.34 304.621 771.835 304.701 762.331 304.511 762.061 290.06 762.47 275.589 761.722 261.158 750.473 261.058 739.223 261.128 727.973 261.128 726.547 261.168 725.191 260.829 723.854 260.46 721.241 255.134 722.558 249.051 722.328 243.366Z" fill="#008BBC" transform="matrix(1 0 0 1.0001 2948.12 1457)"/><path d="M152.929 90.0878C164.408 90.3172 175.907 90.3771 187.386 90.038 191.425 106.115 194.697 122.361 198.666 138.458 199.953 143.305 200.601 148.331 202.376 153.049 202.655 152.331 203.224 150.904 203.503 150.186 204.251 143.943 206.156 137.929 207.512 131.796 210.055 120.775 212.858 109.815 215.421 98.7944 215.571 98.3057 215.88 97.3084 216.029 96.8197 216.598 95.8922 217.186 94.9847 217.785 94.0871 227.279 94.3364 236.783 93.8976 246.268 94.3763 245.48 98.565 244.313 102.664 243.436 106.833 243.077 108.159 242.767 109.496 242.448 110.842 242.119 112.178 241.83 113.535 241.541 114.881 240.623 118.053 240.105 121.334 239.127 124.495 238.908 125.572 238.698 126.65 238.489 127.737 238.06 129.322 237.571 130.888 237.143 132.484 236.923 133.571 236.714 134.658 236.504 135.755 236.085 137.082 235.776 138.438 235.487 139.794 232.176 152.999 229.314 166.323 225.973 179.517 225.145 183.636 221.405 186.439 217.356 186.928 206.056 188.025 194.527 188.473 183.297 186.539 176.715 185.382 175.688 178.021 174.361 172.686 173.194 167.919 171.838 163.201 170.691 158.424 170.262 156.868 169.833 155.312 169.355 153.767 169.046 152.43 168.726 151.104 168.387 149.787 167.829 147.673 167.23 145.569 166.672 143.454 166.303 142.128 165.974 140.792 165.675 139.455 165.246 137.899 164.807 136.363 164.368 134.818 164.059 133.481 163.74 132.145 163.401 130.818 159.95 117.235 156.38 103.681 152.929 90.0878Z" fill="#00B0F0" transform="matrix(1 0 0 1.0001 2948.12 1457)"/><path d="M293.242 89.5692C297.351 110.493 303.355 131.008 308.042 151.802 308.511 151.223 308.979 150.635 309.458 150.057 309.598 148.85 309.757 147.633 309.927 146.426 310.874 143.255 311.433 139.974 312.261 136.772 315.233 123.289 318.484 109.865 321.366 96.361 331.748 95.9221 342.14 96.351 352.522 96.0817 351.665 101.846 349.69 107.381 348.882 113.166 344.394 130.938 339.757 148.7 335.039 166.423 333.773 171.15 332.766 175.967 331.05 180.555 329.784 184.394 325.804 186.479 322.004 186.928 313.497 187.875 304.861 188.204 296.333 187.436 290.978 187.297 283.588 186.648 281.942 180.395 276.776 160.977 272.049 141.44 267.321 121.912 265.825 112.528 262.604 103.512 261.218 94.117 271.859 93.9774 282.54 94.6456 293.172 93.7679 293.212 92.3617 293.232 90.9655 293.242 89.5692Z" fill="#00B0F0" transform="matrix(1 0 0 1.0001 2948.12 1457)"/><path d="M535.281 92.3717C537.246 93.2693 539.27 94.2267 541.494 94.1768 568.103 94.1968 594.731 94.117 621.35 94.2167 623.743 94.1968 626.097 93.7081 628.451 93.2693 631.682 92.8005 634.614 94.7154 637.546 95.8025 651.519 101.776 660.804 116.597 660.913 131.676 661.312 138.488 660.465 145.289 658.49 151.812 657.622 153.677 656.804 155.572 656.036 157.477 651.01 167.35 642.164 174.81 632.181 179.378 618.817 185.541 603.907 186.967 589.366 186.987 574.715 186.957 560.065 187.047 545.414 186.947 540.527 186.928 534.314 183.886 534.912 178.161 535.291 149.568 534.563 120.955 535.281 92.3717M569.27 109.954C569.25 126.41 569.26 142.876 569.26 159.342 578.315 159.342 587.381 159.332 596.437 159.342 599.698 159.292 603.029 159.411 606.19 158.434 606.769 158.304 607.936 158.035 608.514 157.906 612.304 156.2 616.174 154.265 618.836 150.954 624.85 144.023 625.229 133.75 622.387 125.393 620.043 118.611 613.87 114.023 607.238 111.899 605.632 111.43 604.016 110.992 602.421 110.543 591.41 109.456 580.31 110.174 569.27 109.954Z" fill="#00B0F0" transform="matrix(1 0 0 1.0001 2948.12 1457)"/><path d="M399.576 93.2992C406.587 94.6855 413.758 94.0572 420.859 94.1669 444.485 94.127 468.122 94.2666 491.748 94.0871 491.918 98.2459 491.309 102.375 490.302 106.394 489.684 107.78 488.267 108.798 486.722 108.698 469.239 109.944 451.626 109.087 434.143 109.376 434.193 125.951 434.143 142.537 434.173 159.112 454.698 159.102 475.223 159.132 495.747 159.092 497.303 158.953 498.749 159.511 500.156 160.1 503.297 165.744 502.39 172.426 502.29 178.62 502.1 182.031 500.923 186.888 496.695 186.947 468.112 187.047 439.529 186.957 410.935 186.997 406.537 187.127 401.979 185.461 399.496 181.652 399.446 180.774 399.337 179.009 399.287 178.121 399.337 156.32 399.277 134.508 399.307 112.707 399.347 106.234 399.087 99.7519 399.576 93.2992Z" fill="#00B0F0" transform="matrix(1 0 0 1.0001 2948.12 1457)"/><path d="M58.9316 307.932C65.1449 306.865 71.1388 303.305 74.0509 297.56 75.906 298.667 77.5715 300.422 79.8154 300.682 88.0633 301.32 96.4108 299.924 104.599 301.43 100.939 312.171 92.2121 320.778 81.9298 325.316 72.8542 329.454 62.7713 330.741 52.8878 331 48.1306 331.18 43.3435 330.711 38.6062 331.399 38.7857 345.551 38.5364 359.713 38.7458 373.865 38.6661 375.58 38.8456 377.406 38.1874 379.041 33.6795 381.913 27.9947 381.375 22.8785 381.524 18.3407 381.285 13.005 381.674 9.57426 378.124 9.61416 353.59 9.58424 329.065 9.58424 304.531 18.8892 304.701 28.2042 304.601 37.5092 304.571 37.8981 305.908 38.2771 307.244 38.6661 308.59 45.4179 308.561 52.2495 309.089 58.9316 307.932Z" fill="#00B0F0" transform="matrix(1 0 0 1.0001 2948.12 1457)"/><path d="M130.978 303.644C135.695 304.412 139.724 307.703 144.601 307.533 158.235 307.444 171.868 307.553 185.501 307.444 187.267 307.543 189.142 307.344 190.817 308.022 192.572 309.219 193.959 310.874 195.754 312.021 198.287 312.759 200.96 312.859 203.563 313.278 203.194 313.477 202.476 313.876 202.107 314.076 212.519 319.092 218.403 329.674 222.622 339.926 224.746 345.042 227.01 350.089 229.144 355.205 230.151 357.519 231.159 359.843 232.126 362.186 233.642 365.418 234.909 368.759 236.245 372.07 237.123 374.414 237.192 376.927 237.103 379.41 231.368 382.372 224.656 381.245 218.443 381.514 213.706 381.395 206.824 381.784 205.577 375.83 204.949 374.194 204.291 372.578 203.643 370.963 202.944 369.267 202.266 367.562 201.618 365.857 200.84 363.952 200.062 362.057 199.264 360.162 195.734 351.555 192.622 342.749 188.234 334.531 185.402 329.175 180.844 324.248 174.73 322.852 169.903 321.725 164.917 322.134 160.01 321.994 159.79 340.355 160.04 358.726 159.89 377.086 159.392 380.368 155.263 380.757 152.62 381.175 145.469 381.604 137.8 382.342 131.137 379.151 130.898 376.777 130.838 374.384 130.868 371.99 130.968 349.211 130.729 326.433 130.978 303.644Z" fill="#00B0F0" transform="matrix(1 0 0 1.0001 2948.12 1457)"/><path d="M586.833 304.352C595.459 304.93 604.116 304.442 612.753 304.651 612.244 310.146 612.464 315.681 612.892 321.177 613.032 340.066 612.932 358.965 612.733 377.844 613.022 379.39 611.037 379.869 609.99 380.397 604.276 381.943 598.202 381.744 592.368 381.046 590.104 380.687 586.663 379.819 586.892 376.887 586.773 352.712 586.892 328.537 586.833 304.352Z" fill="#00B0F0" transform="matrix(1 0 0 1.0001 2948.12 1457)"/><path d="M629.488 304.811C640.289 304.342 651.1 304.94 661.901 304.751 662.529 306.277 663.227 307.773 663.975 309.259 665.202 311.463 666.329 313.727 667.456 316.001 668.623 318.404 669.839 320.808 671.056 323.201 671.704 324.528 672.353 325.854 672.991 327.19 673.24 327.689 673.739 328.686 673.988 329.185 675.754 333.274 677.928 337.194 679.424 341.392 679.992 329.135 678.586 316.918 678.785 304.651 687.691 304.531 696.588 304.741 705.494 304.511 705.424 327.38 705.583 350.268 705.414 373.137 704.067 377.206 700.686 380.846 696.139 380.846 689.108 381.135 681.877 381.754 674.946 380.178 667.655 377.914 664.404 370.295 660.993 364.151 650.571 344.324 639.84 324.667 629.488 304.811Z" fill="#00B0F0" transform="matrix(1 0 0 1.0001 2948.12 1457)"/><path d="M762.331 304.511C771.835 304.701 781.34 304.621 790.854 304.541 790.904 324.019 790.854 343.497 790.874 362.964 790.904 368.071 790.635 373.187 791.273 378.273L791.353 379.021C785.778 382.093 779.146 381.495 773.022 381.445 769.452 381.086 765.113 381.225 762.61 378.213 762.121 353.669 762.68 329.075 762.331 304.511Z" fill="#00B0F0" transform="matrix(1 0 0 1.0001 2948.12 1457)"/><path d="M258.814 309.568C264.529 311.154 270.473 310.595 276.297 310.166 279.878 309.717 282.57 313.138 286.211 312.689 300.193 312.799 314.165 312.64 328.148 312.779 330.851 312.929 333.394 311.951 335.827 310.864 335.368 312.65 334.87 314.415 334.301 316.17 333.783 316.499 332.756 317.147 332.237 317.477 317.427 317.596 302.617 317.427 287.816 317.566 287.826 331.01 287.886 344.464 287.786 357.918 304.91 358.397 322.064 357.918 339.198 358.157 340.215 358.307 341.233 358.516 342.23 358.805 344.564 363.832 343.866 369.537 343.716 374.912 343.766 377.605 342.36 381.165 339.098 380.796 316.489 380.906 293.88 380.786 271.281 380.856 268.159 380.766 264.679 381.056 262.006 379.131 259.622 377.675 258.784 374.673 258.834 372.03 258.804 351.206 258.854 330.382 258.814 309.568Z" fill="#00B0F0" transform="matrix(1 0 0 1.0001 2948.12 1457)"/><path d="M475.272 310.824C481.386 310.994 487.519 310.595 493.623 311.054 504.235 312.291 514.926 311.503 525.577 311.702 534.483 311.253 543.3 313.118 552.206 312.57 551.468 314.485 550.68 316.469 548.815 317.566 533.975 317.497 519.125 317.457 504.284 317.586 504.304 331.03 504.344 344.474 504.264 357.918 518.337 358.357 532.429 357.988 546.511 358.117 550.58 358.277 554.759 357.579 558.718 358.786 559.735 361.049 560.214 363.483 560.693 365.906 560.773 368.3 560.773 370.704 560.693 373.107 559.935 375.84 560.154 380.597 556.265 380.737 533.416 380.986 510.558 380.746 487.699 380.856 484.617 380.746 481.177 381.066 478.554 379.141 476.21 377.635 475.262 374.693 475.302 372.03 475.262 351.635 475.312 331.23 475.272 310.824Z" fill="#00B0F0" transform="matrix(1 0 0 1.0001 2948.12 1457)"/><path d="M432.836 315.552C436.437 315.781 439.818 314.415 442.76 312.46 443.239 312.679 444.186 313.128 444.665 313.358L445.074 313.547C447.188 316.629 449.103 319.84 450.639 323.261 451.626 325.824 452.274 328.507 452.753 331.21 453.481 335.468 453.222 339.817 452.952 344.105 452.504 345.78 452.224 347.506 451.995 349.221 449.232 360.401 441.812 370.374 431.63 375.85 417.548 383.579 400.573 385.035 384.975 381.973 377.226 380.268 369.267 378.094 362.904 373.157 361.269 371.97 360.481 370.075 359.673 368.31 359.514 361.837 358.367 354.976 360.91 348.822 363.154 347.975 365.567 348.374 367.492 349.79 374.982 354.507 383.32 357.998 392.076 359.414 400.852 360.272 410.905 360.381 417.827 354.028 422.644 349.71 423.212 342.799 422.285 336.775 420.061 332.516 416.49 329.085 412.431 326.602 405.281 322.194 397.272 319.481 389.852 315.592 397.442 314.126 405.181 315.113 412.85 314.824 419.522 314.535 426.164 315.482 432.836 315.552Z" fill="#00B0F0" transform="matrix(1 0 0 1.0001 2948.12 1457)"/></g></g></g></g></svg>