<svg width="1454" height="1455" xmlns="http://www.w3.org/2000/svg" xmlns:xlink="http://www.w3.org/1999/xlink" xml:space="preserve" overflow="hidden"><defs><filter id="fx0" x="-10%" y="-10%" width="120%" height="120%" filterUnits="userSpaceOnUse" primitiveUnits="userSpaceOnUse"><feComponentTransfer color-interpolation-filters="sRGB"><feFuncR type="discrete" tableValues="0 0"/><feFuncG type="discrete" tableValues="0 0"/><feFuncB type="discrete" tableValues="0 0"/><feFuncA type="linear" slope="0.4" intercept="0"/></feComponentTransfer><feGaussianBlur stdDeviation="6.11111 6.11111"/></filter></defs><g transform="translate(-2638 -873)"><rect x="2638" y="873" width="1454" height="1455" fill="#FFFFFF" fill-opacity="0"/><path d="M2858 1095.26C2858 1002.12 2916.72 956 3009.87 956L3747.52 956C3840.67 956 3870 1035.71 3870 1128.85L3870 2076.35C3870 2169.49 3849.07 2245 3755.92 2245L2967.88 2245C2874.73 2245 2858 2169.49 2858 2076.35L2858 1095.26Z" stroke="#999999" stroke-width="13.75" stroke-miterlimit="8" stroke-opacity="0.6" fill="#FFFFFF" fill-rule="evenodd"/><path d="M2867 1108.78C2867 1017.29 2924.97 972 3016.92 972L3745.09 972C3837.05 972 3866 1050.28 3866 1141.77L3866 2072.36C3866 2163.84 3845.34 2238 3753.38 2238L2975.47 2238C2883.51 2238 2867 2163.84 2867 2072.36L2867 1108.78Z" fill="#F5F5F5" fill-rule="evenodd"/><path d="M2869 2075 3868 2075C3868 2166.13 3847.34 2240 3755.38 2240L2977.47 2240C2885.51 2240 2869 2166.13 2869 2075Z" fill="#F9F9F9" fill-rule="evenodd"/><rect x="2867" y="1605" width="999" height="470" fill="#F9F9F9"/><g filter="url(#fx0)" transform="translate(3683 942)"><g><path d="M35.8476 173.728C15.2336 179.413 14.8955 95.0946 0 17.1865 94.8055 14.7676 147.245-13.6617 149 8.23475 149 99.6338 128.243 173.728 35.8476 173.728Z" fill="#FFFFFF" fill-rule="evenodd" transform="matrix(1 0 0 -1 20.25 194)"/></g></g><path d="M35.8476 173.728C15.2336 179.413 14.8955 95.0946 0 17.1865 94.8055 14.7676 147.245-13.6617 149 8.23475 149 99.6338 128.243 173.728 35.8476 173.728Z" fill="#FFFFFF" fill-rule="evenodd" transform="matrix(1 0 0 -1 3717 1136)"/><path d="M3170 1210.5C3170 1097.56 3259.54 1006 3370 1006 3480.46 1006 3570 1097.56 3570 1210.5 3570 1323.44 3480.46 1415 3370 1415 3259.54 1415 3170 1323.44 3170 1210.5Z" fill="#F6CA38" fill-rule="evenodd"/><path d="M3413.46 1077.42C3467.46 1077.52 3511.16 1112.62 3511.08 1155.82 3510.99 1199.01 3467.16 1233.95 3413.16 1233.84L3413.23 1194.74C3445.63 1194.8 3471.93 1177.34 3471.97 1155.74 3472.01 1134.14 3445.78 1116.59 3413.39 1116.52Z" fill="#00B0F0" fill-rule="evenodd"/><rect x="3265" y="1077" width="40.0002" height="277" fill="#00B0F0"/><rect x="3265" y="1077" width="133" height="40.9999" fill="#00B0F0"/><rect x="3265" y="1194" width="133" height="40.0002" fill="#00B0F0"/><g><g><g><path d="M48.3367 3.5862C69.1279-1.29807 92.9332 0.286016 110.93 12.6287 113.856 21.9132 113.878 32.0998 110.776 41.3403 103.054 40.9663 96.8714 35.928 89.809 33.4419 79.8865 29.8117 68.4458 27.4795 58.3693 31.9018 49.2608 35.686 43.9365 47.8527 49.7448 56.5212 56.0811 66.8617 68.4678 70.4699 78.8084 75.4642 91.1071 81.5586 104.968 86.6408 113.042 98.4555 105.012 99.4896 96.8274 99.8416 88.841 98.2795 76.3443 96.0134 63.6056 96.6734 50.9769 95.9034 47.1046 95.5513 43.3864 96.6734 39.8222 97.9935 26.2475 91.6131 15.0268 79.5124 11.6607 64.6836 8.9985 54.8491 10.2746 44.5305 12.7387 34.8279 18.547 19.3171 32.0558 7.0844 48.3367 3.5862Z" fill="#008BBC" transform="matrix(1 0 0 1.00103 2924.27 1514)"/><path d="M528.778 1.91411C546.643-0.154009 566.73 0.90205 581.317 12.6727 589.897 19.0531 594.297 29.3936 596.299 39.6022 598.852 58.4353 593.285 78.6984 580.833 93.2192 567.764 89.193 553.903 93.9673 540.746 89.963 549.613 77.8404 555.025 63.0995 552.957 47.9407 549.811 42.1104 545.477 36.5 538.656 34.938 527.744 32.8478 516.193 34.96 506.556 40.4603 501.32 43.2324 496.524 47.6327 490.187 47.2586 488.779 37.7541 487.327 27.4575 490.319 18.151 500.352 7.92044 515.115 4.40025 528.778 1.91411Z" fill="#008BBC" transform="matrix(1 0 0 1.00103 2924.27 1514)"/><path d="M815.674 4.59826C831.823-0.132007 849.159 0.308017 865.462 3.93822 869.511 5.10429 874.219 6.40236 876.331 10.4066 878.003 18.129 877.101 26.0935 876.375 33.8599 868.653 35.686 861.59 31.3078 854.176 30.1197 841.305 28.0736 826.828 28.7116 816.642 37.8641 805.597 48.2487 802.627 64.1996 801.681 78.6764 819.062 69.5679 839.919 66.8617 858.818 72.5381 872.723 76.5643 884.141 88.951 886.122 103.45 887.75 114.34 888.784 125.869 885.88 136.628 885.902 126.947 885.461 117.267 884.845 107.608 873.075 108.686 861.348 106.178 849.6 107.366 845.529 102.592 840.491 97.7735 833.803 97.6415 822.428 96.1014 811.889 101.272 801.923 105.98 801.505 117.949 803.001 129.873 805.817 141.49 799.745 130.313 801.373 117.201 800.229 104.99 789.14 106.97 777.832 107.454 766.633 106.354 765.929 81.6906 767.909 55.8391 780.186 33.9039 787.49 19.8891 800.801 9.50453 815.674 4.59826Z" fill="#008BBC" transform="matrix(1 0 0 1.00103 2924.27 1514)"/><path d="M156.077 3.76221C165.933 2.92616 176.318 2.17812 185.558 6.33635 185.91 28.7996 185.602 51.2629 185.712 73.7261 207.274 73.6161 228.813 73.7921 250.374 73.6381 250.088 54.9811 250.352 36.302 250.198 17.645 250 13.4208 250.902 9.30652 251.936 5.25829 263.267 2.26613 275.609 2.15612 286.786 5.91833 286.808 34.982 286.852 64.0456 286.764 93.1092 240.825 92.9552 194.887 92.9772 148.948 93.0872 148.926 65.7177 148.86 38.3261 148.948 10.9566 148.354 6.77638 152.447 4.15823 156.077 3.76221Z" fill="#008BBC" transform="matrix(1 0 0 1.00103 2924.27 1514)"/><path d="M366.959 5.63232C371.337 4.07023 375.869 2.94816 380.555 3.23418 391.028 3.5862 401.874 1.89211 411.929 5.67632 416.285 13.5308 418.287 22.3092 421.302 30.6917 427.748 48.9747 434.194 67.2578 440.487 85.5848 441.741 90.5351 444.579 95.3313 443.897 100.59 442.379 99.2916 440.883 97.9935 439.409 96.6734 428.65 96.2114 417.825 95.9474 407.199 97.9715 401.412 79.4244 394.35 61.2514 389.422 42.4624 388.696 42.7484 387.266 43.2764 386.562 43.5624 381.171 62.3955 374.549 80.8765 367.531 99.1595 360.424 94.8033 351.888 96.0354 343.989 95.8594 341.855 93.6152 339.743 91.3711 337.631 89.105 341.349 77.6423 345.573 66.3557 349.446 54.9371 355.166 38.4581 360.292 21.7592 366.959 5.63232Z" fill="#008BBC" transform="matrix(1 0 0 1.00103 2924.27 1514)"/><path d="M634.537 11.1766C633.789 5.85233 640.148 3.6302 644.46 3.89422 669.431 3.82821 694.403 3.98222 719.374 3.82821 723.356 3.5862 727.251 4.55425 730.991 5.87433 731.431 9.74654 731.937 13.6188 733.081 17.359 733.081 19.0091 733.081 20.6592 733.081 22.3092 731.959 26.0715 731.409 29.9437 730.947 33.8159 727.185 35.048 723.268 35.928 719.308 35.708 701.267 35.576 683.248 35.73 665.207 35.62 665.119 47.8087 665.141 60.0194 665.185 72.208 686.24 70.932 709.606 70.91 727.141 84.4407 736.249 91.0191 739.483 102.46 741.617 112.932 743.378 125.319 742.564 138.63 736.733 149.916 740.869 133.459 742.146 115.946 736.755 99.6216 725.865 100.678 714.93 100.436 704.039 100.766 700.343 100.458 697.615 103.054 694.821 104.968 679.904 97.4875 662.963 99.0055 646.968 100.788 642.26 101.404 633.591 101.316 634.537 94.4073 634.449 66.6637 634.427 38.9202 634.537 11.1766Z" fill="#008BBC" transform="matrix(1 0 0 1.00103 2924.27 1514)"/><path d="M337.631 89.105C339.743 91.3711 341.855 93.6152 343.989 95.8594 351.888 96.0354 360.424 94.8033 367.531 99.1595 365.814 103.802 364.01 108.422 362.096 112.998 378.707 112.932 395.318 113.02 411.929 112.932 410.477 107.894 408.915 102.9 407.199 97.9715 417.825 95.9474 428.65 96.2114 439.409 96.6734 440.883 97.9935 442.379 99.2916 443.897 100.59 447.615 105.166 448.429 111.392 450.497 116.805 451.487 119.511 452.433 122.239 453.423 124.945 456.196 134.031 459.474 142.964 462.774 151.874 465.524 160.631 469.682 169.057 470.232 178.364 469.374 179.046 467.68 180.41 466.822 181.092 456.944 181.84 447.021 181.686 437.12 181.18 436.108 180.454 434.084 179.002 433.072 178.254 432.412 176.098 431.73 173.942 431.048 171.808 427.792 161.841 423.854 152.117 421.302 141.93 414.547 139.466 407.287 140.61 400.268 140.412 385.748 140.61 371.227 140.082 356.728 140.61 356.046 141.138 354.66 142.194 353.978 142.744 351.272 150.884 348.896 159.157 346.167 167.319 344.781 171.302 343.373 175.284 341.921 179.244 331.581 183.16 320.338 181.4 309.601 180.806 307.093 172.116 312.109 164.107 314.64 156.099 320.58 138.608 326.344 121.095 332.791 103.78 334.375 98.8735 336.025 94.0113 337.631 89.105Z" fill="#00B0F0" transform="matrix(1 0 0 1.00103 2924.27 1514)"/><path d="M508.118 127.453C519.031 114.978 531.418 103.714 540.746 89.963 553.903 93.9673 567.764 89.193 580.833 93.2192 565.586 114.67 545.917 132.403 527.986 151.566 549.261 151.676 570.536 151.566 591.811 151.588 594.847 151.676 598.279 151.632 600.766 153.723 603.384 159.399 603.736 165.669 603.406 171.83 602.614 174.294 601.866 176.758 601.206 179.266 598.191 180.388 595.045 181.158 591.833 181.026 558.633 181.092 525.455 180.718 492.256 181.18 484.049 177.836 484.533 167.913 485.127 160.543 486.513 146.154 499.494 137.618 508.118 127.453Z" fill="#00B0F0" transform="matrix(1 0 0 1.00103 2924.27 1514)"/><path d="M148.948 93.0872C194.887 92.9772 240.825 92.9552 286.764 93.1092 286.83 121.205 286.522 149.278 286.94 177.352 276.775 184.194 263.069 181.928 251.76 179.464 248.944 167.473 250.814 155.087 250.308 142.898 250.704 133.415 249.318 123.779 251.166 114.428 250.484 111.216 250.176 107.982 250.242 104.682 228.681 104.484 207.12 104.726 185.58 104.55 185.602 128.685 185.272 152.843 185.756 176.978 179.596 182.83 170.752 181.488 162.985 181.554 158.145 181.246 151.566 181.686 149.146 176.45 148.728 148.684 149.146 120.875 148.948 93.0872Z" fill="#00B0F0" transform="matrix(1 0 0 1.00103 2924.27 1514)"/><path d="M39.8222 97.9935C43.3864 96.6734 47.1046 95.5513 50.9769 95.9034 63.6056 96.6734 76.3443 96.0134 88.841 98.2795 96.8274 99.8416 105.012 99.4896 113.042 98.4555 116.343 104.198 119.291 110.16 121.579 116.387 122.349 126.859 122.349 137.486 119.379 147.628 113.108 163.095 99.7536 175.504 83.6047 180.014 61.2954 186.614 35.972 185.052 15.3789 173.898 3.6082 167.869 8.27246 152.733 8.27246 142.172 12.0127 140.786 15.9289 141.314 19.1631 143.646 32.4958 151.588 48.0947 156.913 63.7816 154.713 72.6041 153.459 81.9106 148.2 84.4187 139.092 85.1888 133.151 85.8488 126.199 81.2065 121.579 70.2939 109.39 53.331 106.288 39.8222 97.9935Z" fill="#00B0F0" transform="matrix(1 0 0 1.00103 2924.27 1514)"/><path d="M704.039 100.766C714.93 100.436 725.865 100.678 736.755 99.6216 742.146 115.946 740.869 133.459 736.733 149.916 728.593 169.805 707.164 180.916 686.636 183.138 667.165 184.854 646.066 183.82 628.817 173.788 626.023 164.503 626.265 154.933 628.949 145.67 637.684 145.978 644.702 152.249 653.261 153.613 670.356 157.573 693.347 156.781 702.499 139.07 703.929 133.173 705.095 127.145 704.435 121.051 703.643 118.719 702.939 116.387 702.323 114.032 700.189 110.71 697.637 107.696 694.821 104.968 697.615 103.054 700.343 100.458 704.039 100.766Z" fill="#00B0F0" transform="matrix(1 0 0 1.00103 2924.27 1514)"/><path d="M766.633 106.354C777.832 107.454 789.14 106.97 800.229 104.99 801.373 117.201 799.745 130.313 805.817 141.49 808.479 147.276 812.417 153.261 818.908 155.131 829.6 159.201 843.065 154.713 848.257 144.262 854.154 133.019 853.604 119.159 849.6 107.366 861.348 106.178 873.075 108.686 884.845 107.608 885.461 117.267 885.902 126.947 885.88 136.628 883.613 154.955 870.809 171.434 853.846 178.628 839.545 184.568 823.396 185.118 808.325 182.258 794.685 179.574 782.562 170.532 776.445 157.991 768.525 142.084 766.897 123.867 766.633 106.354Z" fill="#00B0F0" transform="matrix(1 0 0 1.00103 2924.27 1514)"/></g></g></g></g></svg>