<svg width="1454" height="1456" xmlns="http://www.w3.org/2000/svg" xmlns:xlink="http://www.w3.org/1999/xlink" xml:space="preserve" overflow="hidden"><defs><filter id="fx0" x="-10%" y="-10%" width="120%" height="120%" filterUnits="userSpaceOnUse" primitiveUnits="userSpaceOnUse"><feComponentTransfer color-interpolation-filters="sRGB"><feFuncR type="discrete" tableValues="0 0"/><feFuncG type="discrete" tableValues="0 0"/><feFuncB type="discrete" tableValues="0 0"/><feFuncA type="linear" slope="0.4" intercept="0"/></feComponentTransfer><feGaussianBlur stdDeviation="6.11111 6.11111"/></filter><clipPath id="clip1"><rect x="2638" y="867" width="1454" height="1456"/></clipPath></defs><g clip-path="url(#clip1)" transform="translate(-2638 -867)"><rect x="2638" y="867" width="1454" height="1456" fill="#FFFFFF" fill-opacity="0"/><path d="M2858 1090.15C2858 997.081 2916.72 951 3009.87 951L3747.52 951C3840.67 951 3870 1030.64 3870 1123.72L3870 2070.48C3870 2163.55 3849.07 2239 3755.92 2239L2967.88 2239C2874.73 2239 2858 2163.55 2858 2070.48L2858 1090.15Z" stroke="#999999" stroke-width="13.75" stroke-miterlimit="8" stroke-opacity="0.6" fill="#FFFFFF" fill-rule="evenodd"/><path d="M2867 1102.78C2867 1011.29 2924.97 966 3016.92 966L3745.09 966C3837.05 966 3866 1044.28 3866 1135.77L3866 2066.36C3866 2157.84 3845.34 2232 3753.38 2232L2975.47 2232C2883.51 2232 2867 2157.84 2867 2066.36L2867 1102.78Z" fill="#F5F5F5" fill-rule="evenodd"/><path d="M2869 2069 3868 2069C3868 2160.68 3847.34 2235 3755.38 2235L2977.47 2235C2885.51 2235 2869 2160.68 2869 2069Z" fill="#F9F9F9" fill-rule="evenodd"/><rect x="2867" y="1599" width="999" height="470" fill="#F9F9F9"/><g filter="url(#fx0)" transform="translate(3683 937)"><g><path d="M35.8476 173.728C15.2336 179.413 14.8955 95.0946 0 17.1865 94.8055 14.7676 147.245-13.6617 149 8.23475 149 99.6338 128.243 173.728 35.8476 173.728Z" fill="#FFFFFF" fill-rule="evenodd" transform="matrix(1 0 0 -1 20.25 194)"/></g></g><path d="M35.8476 173.728C15.2336 179.413 14.8955 95.0946 0 17.1865 94.8055 14.7676 147.245-13.6617 149 8.23475 149 99.6338 128.243 173.728 35.8476 173.728Z" fill="#FFFFFF" fill-rule="evenodd" transform="matrix(1 0 0 -1 3717 1131)"/><path d="M3170 1205.5C3170 1092.56 3259.54 1001 3370 1001 3480.46 1001 3570 1092.56 3570 1205.5 3570 1318.44 3480.46 1410 3370 1410 3259.54 1410 3170 1318.44 3170 1205.5Z" fill="#F6CA38" fill-rule="evenodd"/><path d="M3413.46 1072.14C3467.46 1072.25 3511.16 1107.35 3511.08 1150.54 3510.99 1193.74 3467.16 1228.67 3413.16 1228.57L3413.23 1189.46C3445.63 1189.52 3471.93 1172.07 3471.97 1150.47 3472.01 1128.87 3445.78 1111.31 3413.39 1111.25Z" fill="#00B0F0" fill-rule="evenodd"/><rect x="3265" y="1072" width="40.0002" height="277" fill="#00B0F0"/><rect x="3265" y="1072" width="133" height="39.9999" fill="#00B0F0"/><rect x="3265" y="1188" width="133" height="40.9999" fill="#00B0F0"/><g><g><g><path d="M142.76 14.0367C144.582 12.4448 146.435 10.4224 149.088 10.6127 158.289 10.2022 167.53 10.2622 176.721 10.7628 178.092 12.0544 180.135 13.0856 180.435 15.128 180.966 17.7812 181.576 20.4143 182.367 22.9974 187.163 46.946 193.991 70.454 198.106 94.5327 201.66 110.522 205.855 126.381 208.979 142.46 206.386 135.492 205.155 128.143 203.412 120.944 200.859 110.211 198.587 99.4185 195.833 88.7358 188.365 90.2876 180.735 89.4566 173.186 89.7169 169.062 89.8771 164.957 89.4767 160.932 88.6056 155.375 68.6118 150.229 48.5178 145.003 28.4439 143.791 23.7283 142.38 18.9626 142.76 14.0367Z" fill="#008BBC" transform="matrix(1 0 0 1.00098 2947 1449.06)"/><path d="M245.062 12.8854C251.33 9.59143 258.548 10.5225 265.336 10.3824 269.772 10.2923 274.197 10.5626 278.622 10.7328 280.765 11.8241 283.178 12.9955 283.999 15.4684 286.231 23.6081 287.823 31.9481 290.346 40.0077 291.157 45.1738 292.699 50.1798 294.351 55.1357 294.932 57.7689 295.592 60.382 296.293 62.9851 298.356 71.9357 300.869 80.7863 302.451 89.8471 302.451 90.7482 302.451 92.5403 302.451 93.4314 291.227 93.4714 279.884 94.4326 268.74 92.8206L268.07 92.7105C267.929 91.5191 267.779 90.3177 267.629 89.1262 265.496 82.1679 264.425 74.9193 261.882 68.0912 259.97 76.9417 257.747 85.7122 255.645 94.5127L255.224 94.4326C245.803 92.3801 236.061 94.783 226.59 92.9208 223.516 104.284 220.903 115.768 218.16 127.212 216.548 134.2 214.285 141.048 213.404 148.197 213.194 148.377 212.754 148.737 212.533 148.928 212.243 146.294 213.424 143.791 213.925 141.258 217.309 126.961 220.813 112.694 224.267 98.4173 228.933 75.8604 234.76 53.5638 239.926 31.1271 241.488 24.9998 242.599 18.7423 245.062 12.8854Z" fill="#008BBC" transform="matrix(1 0 0 1.00098 2947 1449.06)"/><path d="M549.135 12.2947C552.609 10.082 556.804 10.873 560.688 10.7728 576.047 10.7829 591.405 10.7628 606.763 10.7728 613.902 11.704 621.18 11.774 628.129 13.8765 631.102 14.7276 634.066 15.6487 636.979 16.74 644.889 19.7535 651.446 25.6406 655.982 32.729 659.686 39.1667 661.549 46.4954 661.468 53.9043 662.59 57.1581 660.678 60.6323 660.968 64.0163 660.567 65.3779 660.237 66.7496 659.947 68.1312 658.004 74.2285 654.911 80.1155 650.015 84.3606 646.601 87.5844 642.286 89.5467 638.381 92.0597 640.523 92.8006 642.696 93.5215 644.879 94.2023L643.978 94.0922C638.601 93.3513 633.155 93.6016 627.748 93.6216 600.966 93.6717 574.194 93.5816 547.423 93.6717 546.882 92.5103 546.351 91.3489 545.831 90.1975 544.749 98.4574 545.2 106.797 545.13 115.107 545.06 136.002 545.3 156.907 545.02 177.802 544.92 178.262 544.719 179.194 544.619 179.664 543.938 173.507 544.409 167.309 544.279 161.132 544.419 114.426 543.908 67.7307 544.209 21.0251 544.219 17.5709 545.69 13.6563 549.135 12.2947M579.611 38.3657C579.561 53.0432 579.601 67.7207 579.591 82.3982 587.971 82.3882 596.351 82.3982 604.731 82.4182 610.087 82.3982 614.833 79.4347 618.868 76.1608 622.021 72.8669 624.004 68.7419 624.735 64.2366 625.656 60.1517 624.915 55.9967 624.024 51.982 621.811 46.105 616.885 41.5595 610.788 39.9977 600.616 37.3445 589.993 38.7362 579.611 38.3657Z" fill="#008BBC" transform="matrix(1 0 0 1.00098 2947 1449.06)"/><path d="M349.106 14.9378C350.628 10.7929 355.714 10.5926 359.428 10.4424 365.766 10.4625 372.134 10.082 378.441 10.7228 381.645 10.7728 383.567 14.1268 383.607 16.9802 381.595 28.8944 377.73 40.3781 375.127 52.1622 371.363 65.7684 367.798 79.4247 364.164 93.0609 361.02 102.032 359.198 111.393 356.305 120.434 357.726 112.084 360.44 104.034 362.082 95.7241 354.513 95.7141 346.944 95.8543 339.385 95.664 336.401 95.5539 333.387 95.7842 330.544 96.7453 331.856 87.3141 334.228 78.033 336.301 68.7319 337.252 64.1665 338.594 59.6711 339.294 55.0556 340.756 51.2411 341.597 47.2263 342.358 43.2215 343.479 38.8563 344.711 34.5211 345.402 30.0558 347.094 25.13 347.464 19.8637 349.106 14.9378Z" fill="#008BBC" transform="matrix(1 0 0 1.00098 2947 1449.06)"/><path d="M408.026 20.144C407.736 15.1981 412.211 12.1745 416.376 10.7628 445.471 10.7628 474.566 10.7929 503.66 10.7528 505.803 10.6627 507.875 11.2935 509.938 11.8041 512.541 17.7812 512.561 24.4391 512.05 30.8167 511.65 33.1996 511.259 35.6725 510.018 37.7951 508.837 39.5772 506.474 39.4971 504.601 39.5571 484.508 39.5571 464.414 39.4971 444.32 39.5772 444.38 53.5238 444.33 67.4604 444.35 81.407 462.862 81.4671 481.384 81.2869 499.906 81.4971 501.638 85.0814 503.33 89.0461 502.609 93.111 502.139 96.8855 502.159 100.69 501.928 104.485 501.378 105.406 500.817 106.327 500.276 107.258 501.368 102.873 501.868 98.3773 501.888 93.8719 470.961 93.5014 440.035 94.0821 409.118 93.5816 408.607 121.695 409.218 149.829 408.807 177.942 408.707 178.353 408.507 179.164 408.417 179.574 408.066 176.791 408.046 173.977 408.066 171.184 408.197 120.834 407.846 70.494 408.026 20.144Z" fill="#008BBC" transform="matrix(1 0 0 1.00098 2947 1449.06)"/><path d="M64.8673 218.48C72.4163 216.328 80.3157 216.638 88.065 216.088 97.6063 215.537 106.978 217.619 116.299 219.231 118.742 219.922 121.204 220.523 123.677 221.124 124.318 221.374 125.62 221.884 126.271 222.145 129.675 223.647 132.999 225.329 136.353 226.971 147.115 233.839 155.786 243.801 160.992 255.465 169.712 274.477 171.394 296.043 169.072 316.617 169.021 313.664 168.871 310.72 168.761 307.787 158.219 307.787 147.676 307.987 137.143 307.797 134.751 307.967 133.069 306.225 131.697 304.533 130.976 291.828 130.355 278.592 124.518 267.008 119.963 257.817 111.553 250.358 101.461 247.976 87.244 244.501 70.6342 245.483 58.9803 255.214 48.9684 263.664 43.8423 276.63 42.2303 289.375 41.099 295.452 41.6897 301.66 41.3293 307.797L40.5984 307.847C28.1736 308.137 15.7388 307.807 3.30394 307.977L2.73326 307.987C3.01359 290.857 5.29631 273.196 12.9554 257.657 15.5986 252.111 19.3931 247.245 22.9073 242.249 26.822 237.693 31.5276 233.999 36.063 230.124 44.9035 224.648 54.4549 219.922 64.8673 218.48Z" fill="#008BBC" transform="matrix(1 0 0 1.00098 2947 1449.06)"/><path d="M491.656 218.01C496.201 216.628 501.037 217.099 505.683 216.208 509.958 216.478 514.253 216.448 518.538 216.388 527.789 216.218 536.71 218.831 545.781 220.162 548.784 221.184 551.788 222.235 554.831 223.166 560.338 225.709 566.265 228.092 569.909 233.238 571.691 239.756 571.321 246.574 571.161 253.272 571.061 256.886 569.819 261.001 565.895 262.052 560.728 259.629 556.053 256.275 550.756 254.123 535.659 247.815 518.929 244.401 502.619 247.135 489.253 249.227 476.748 256.746 469.069 267.939 461.39 279.533 457.826 293.57 458.056 307.406 457.215 316.687 459.247 325.868 461.831 334.719 457.756 327.46 457.886 318.95 456.434 310.981 444.68 310.851 432.916 310.841 421.152 311.011 421.152 316.868 421.983 322.685 422.283 328.532 421.753 324.837 421.052 321.143 421.032 317.398 421.082 312.362 419.71 307.396 420.341 302.35 421.522 293.099 421.993 283.618 425.177 274.758 426.288 271.143 427.86 267.689 429.362 264.215 436.781 247.936 449.606 234.139 465.705 226.21 468.719 224.958 471.662 223.566 474.606 222.175 476.939 221.664 479.231 220.973 481.484 220.152 484.818 219.171 488.312 218.951 491.656 218.01Z" fill="#008BBC" transform="matrix(1 0 0 1.00098 2947 1449.06)"/><path d="M203.773 220.663C207.557 218.32 212.103 219.121 216.318 219.021 230.995 219.021 245.663 219.031 260.34 219.011 266.438 218.771 272.495 219.802 278.522 220.593 279.593 220.753 280.665 220.913 281.746 221.064 290.306 223.316 299.026 226.21 305.774 232.187 309.038 234.399 311.121 237.793 313.614 240.757 314.124 241.678 314.625 242.599 315.126 243.53 318.7 249.507 320.622 256.376 320.963 263.314 320.943 269.031 321.723 274.898 319.611 280.364 316.748 294.922 305.194 306.555 291.588 311.712L291.237 311.621C285.761 309.849 279.964 310.82 274.337 310.68 258.618 310.52 242.95 311.752 227.281 312.663 218.02 312.362 208.709 313.253 199.488 312.052L198.877 311.972C198.917 284.719 198.897 257.477 198.927 230.224 198.907 226.57 200.008 222.155 203.773 220.663M235.381 247.195C235.531 263.284 235.391 279.363 235.451 295.442 243.43 295.352 251.43 295.642 259.399 295.322 266.958 294.02 275.248 291.247 279.493 284.359 282.717 280.094 283.128 274.507 282.947 269.351 282.957 261.972 279.543 254.063 272.465 250.949 260.881 245.583 247.735 247.635 235.381 247.195Z" fill="#008BBC" transform="matrix(1 0 0 1.00098 2947 1449.06)"/><path d="M356.064 221.214C358.437 220.303 360.79 219.061 363.383 218.961 370.412 218.47 377.48 218.49 384.508 218.941 387.222 218.971 390.105 219.972 391.697 222.295 392.398 223.837 392.117 225.609 392.228 227.261 392.107 254.824 392.358 282.387 392.117 309.949 387.942 310.53 383.727 310.921 379.512 310.861 372.234 310.72 364.935 311.211 357.696 310.21 357.086 310.6 356.475 310.991 355.874 311.391 355.564 284.369 355.844 257.327 355.734 230.305 355.694 227.271 355.764 224.237 356.064 221.214Z" fill="#008BBC" transform="matrix(1 0 0 1.00098 2947 1449.06)"/><path d="M607.184 221.704C609.236 220.603 611.279 219.131 613.692 219.031 621.781 218.34 629.921 218.621 638.01 219.031 640.534 220.202 643.797 221.854 643.317 225.218 643.307 253.803 643.457 282.377 643.277 310.961 639.893 312.072 636.389 312.923 632.804 312.853 624.224 312.873 615.644 313.083 607.074 312.703 606.793 288.894 607.034 265.076 606.984 241.258 607.044 234.74 606.813 228.212 607.184 221.704Z" fill="#008BBC" transform="matrix(1 0 0 1.00098 2947 1449.06)"/><path d="M684.596 221.995C689.812 218.09 696.7 219.121 702.818 219.021 711.588 219.101 721.26 217.94 728.919 223.196 734.686 228.182 737.789 235.351 741.173 242.008 745.779 250.368 749.994 258.939 754.74 267.229 757.463 273.336 761.688 278.602 764.391 284.719 767.405 291.187 772.14 296.914 773.872 303.942 769.257 304.823 764.551 305.064 759.866 304.903 751.346 304.663 742.785 305.364 734.295 304.283 731.612 300.098 729.409 295.632 727.077 291.247 722.211 281.676 717.425 272.064 713.34 262.132 713.561 275.669 713.561 289.215 713.571 302.761 710.857 304.143 707.914 305.144 704.83 304.943 698.122 304.723 691.404 305.204 684.716 304.703 682.524 304.733 682.373 301.99 682.303 300.398 682.063 281.706 682.353 263.004 682.293 244.311 682.423 239.045 682.514 233.739 681.432 228.552 681.212 226.039 683.134 223.877 684.596 221.995Z" fill="#008BBC" transform="matrix(1 0 0 1.00098 2947 1449.06)"/><path d="M794.727 221.164C799.733 218.49 805.46 218.911 810.947 218.731 815.802 218.981 820.989 218.4 825.304 221.154 826.125 223.426 826.555 225.809 826.445 228.232 826.345 246.884 826.455 265.547 826.435 284.189 825.935 284.099 824.913 283.918 824.403 283.828 824.343 290.326 825.094 296.884 824.162 303.342 822.761 305.304 820.068 304.693 818.025 304.933 811.998 304.833 805.971 304.994 799.954 304.863 798.001 305.004 796.299 303.972 794.958 302.671L794.707 303.342C794.427 303.672 793.876 304.353 793.596 304.693 792.715 292.939 793.436 281.105 793.216 269.321 793.226 254.944 793.206 240.567 793.216 226.2 793.085 224.377 794.056 222.786 794.727 221.164Z" fill="#008BBC" transform="matrix(1 0 0 1.00098 2947 1449.06)"/><path d="M498.364 295.462C500.046 294.892 501.778 294.331 503.59 294.451 522.973 294.501 542.346 294.461 561.73 294.471 564.373 294.651 567.547 295.252 568.998 297.745 572.452 303.251 571.171 309.979 571.101 316.117 570.84 318.94 570.62 321.784 570.029 324.557 566.285 325.298 562.45 325.037 558.666 325.017 551.177 324.927 543.688 325.077 536.209 324.947 535.759 323.856 535.328 322.785 534.898 321.703 523.244 321.273 511.49 320.642 499.886 321.944 498.074 320.072 497.052 317.669 496.131 315.286 496.111 309.509 495.461 303.592 497.273 297.995 497.643 297.154 498.004 296.313 498.364 295.462Z" fill="#008BBC" transform="matrix(1 0 0 1.00098 2947 1449.06)"/><path d="M160.932 88.6056C164.957 89.4767 169.062 89.8771 173.186 89.7169 180.735 89.4566 188.365 90.2876 195.833 88.7358 198.587 99.4185 200.859 110.211 203.412 120.944 205.155 128.143 206.386 135.492 208.979 142.46 209.98 145.654 210.571 148.958 211.172 152.241 211.512 151.41 212.193 149.759 212.533 148.928 212.754 148.737 213.194 148.377 213.404 148.197 214.285 141.048 216.548 134.2 218.16 127.212 220.903 115.768 223.516 104.284 226.59 92.9208 236.061 94.783 245.803 92.3801 255.224 94.4326 254.894 95.9944 254.543 97.5563 254.173 99.1081 252.521 106.106 250.909 113.115 249.087 120.073 248.877 121.124 248.676 122.176 248.476 123.227 248.086 124.548 247.735 125.89 247.395 127.232 247.054 128.553 246.754 129.875 246.454 131.206 244.732 138.195 243.01 145.183 241.388 152.191 240.687 154.885 240.056 157.588 239.475 160.301 237.703 166.999 236.512 173.847 234.469 180.465 233.298 184.41 229.203 186.472 225.349 186.783 214.986 187.874 204.464 187.964 194.111 186.713 190.567 186.362 186.823 184.54 185.531 181.016 183.709 176.17 182.818 171.034 181.396 166.068 181.016 164.756 180.695 163.425 180.385 162.103 179.914 160.501 179.494 158.889 179.023 157.287 178.202 153.863 177.231 150.469 176.36 147.055 175.98 145.754 175.659 144.432 175.319 143.121 174.848 141.519 174.448 139.897 173.997 138.295 169.622 121.735 165.708 105.045 160.932 88.6056Z" fill="#00B0F0" transform="matrix(1 0 0 1.00098 2947 1449.06)"/><path d="M302.451 89.8471C303.572 97.0557 305.654 104.044 307.296 111.142 308.748 116.779 310.09 122.446 311.461 128.113 311.782 129.444 312.102 130.776 312.462 132.097 312.783 133.429 313.103 134.771 313.464 136.102 313.794 137.424 314.114 138.765 314.495 140.097 314.805 141.419 315.126 142.76 315.486 144.082 315.836 145.423 316.197 146.775 316.617 148.097 316.707 148.807 316.888 150.219 316.978 150.92 317.378 150.84 318.179 150.68 318.58 150.6 318.75 149.108 318.94 147.616 319.14 146.124 319.531 144.763 319.881 143.401 320.212 142.039 321.233 137.714 322.234 133.379 323.185 129.044 325.668 118.281 328.151 107.528 330.544 96.7453 333.387 95.7842 336.401 95.5539 339.385 95.664 346.944 95.8543 354.513 95.7141 362.082 95.7241 360.44 104.034 357.726 112.084 356.305 120.434 352.07 137.023 347.785 153.593 343.329 170.113 342.088 174.358 341.497 178.973 339.034 182.728 335.32 187.433 328.702 186.743 323.385 187.453 314.985 187.584 306.505 187.914 298.195 186.402 295.863 185.781 293.39 184.7 292.108 182.538 290.697 179.934 290.136 177.001 289.405 174.168 287.693 167.5 286.041 160.822 284.339 154.154 284.019 152.822 283.748 151.481 283.478 150.139L283.087 149.538C279.743 135.011 275.939 120.594 272.295 106.137 271.944 104.815 271.584 103.503 271.213 102.182 270.903 100.84 270.613 99.4986 270.292 98.157 269.792 96.3749 269.261 94.5928 268.74 92.8206 279.884 94.4326 291.227 93.4714 302.451 93.4314 302.451 92.5403 302.451 90.7482 302.451 89.8471Z" fill="#00B0F0" transform="matrix(1 0 0 1.00098 2947 1449.06)"/><path d="M545.831 90.1975C546.351 91.3489 546.882 92.5103 547.423 93.6717 574.194 93.5816 600.966 93.6717 627.748 93.6216 633.155 93.6016 638.601 93.3513 643.978 94.0922 655.752 97.7766 665.433 107.478 669.328 119.152 673.062 131.236 672.261 144.773 667.095 156.336 660.978 169.021 648.763 177.692 635.598 181.917 616.645 188.334 596.361 186.422 576.697 186.743 569.329 186.663 561.95 186.903 554.591 186.632 550.787 186.472 547.362 184.41 545.14 181.366 545.11 180.475 545.05 178.693 545.02 177.802 545.3 156.907 545.06 136.002 545.13 115.107 545.2 106.797 544.749 98.4574 545.831 90.1975M579.481 109.661C579.501 126.271 579.451 142.88 579.501 159.49 588.582 159.48 597.662 159.49 606.743 159.49 612.13 159.27 617.696 158.629 622.522 156.036 629.55 152.562 634.366 145.023 634.416 137.163 634.957 129.805 632.784 121.845 627.077 116.859 620.64 111.473 611.959 109.911 603.79 109.671 595.68 109.621 587.58 109.671 579.481 109.661Z" fill="#00B0F0" transform="matrix(1 0 0 1.00098 2947 1449.06)"/><path d="M409.118 93.5816C440.035 94.0821 470.961 93.5014 501.888 93.8719 501.868 98.3773 501.368 102.873 500.276 107.258 500.226 107.498 500.116 107.979 500.066 108.209 499.455 108.529 498.234 109.15 497.623 109.46 479.692 109.551 461.75 109.45 443.819 109.511 443.909 125.97 443.859 142.42 443.839 158.869 464.103 158.889 484.357 158.899 504.621 158.859 506.464 158.779 508.266 159.27 510.048 159.71 511.53 162.654 512.461 165.868 512.371 169.202 512.301 174.067 512.951 179.234 510.969 183.829 510.118 185.952 507.745 186.923 505.583 186.743 477.229 186.743 448.885 186.743 420.531 186.743 416.066 186.963 411.581 185.131 408.977 181.406 408.937 180.545 408.847 178.803 408.807 177.942 409.218 149.829 408.607 121.695 409.118 93.5816Z" fill="#00B0F0" transform="matrix(1 0 0 1.00098 2947 1449.06)"/><path d="M681.222 293.29C681.362 271.714 680.932 250.128 681.432 228.552 682.514 233.739 682.423 239.045 682.293 244.311 682.353 263.004 682.063 281.706 682.303 300.398 682.373 301.99 682.524 304.733 684.716 304.703 691.404 305.204 698.122 304.723 704.83 304.943 707.914 305.144 710.857 304.143 713.571 302.761 713.02 331.675 713.531 360.62 713.31 389.544 713.621 392.338 710.997 394.13 708.585 394.67 701.256 396.182 693.627 396.222 686.278 394.821 683.715 394.35 680.751 392.578 681.242 389.554 681.162 357.476 681.222 325.378 681.222 293.29Z" fill="#00B0F0" transform="matrix(1 0 0 1.00098 2947 1449.06)"/><path d="M824.403 283.828C824.913 283.918 825.935 284.099 826.435 284.189 826.195 316.948 826.355 349.717 826.305 382.476 826.235 386.851 824.122 391.497 820.057 393.499 815.412 395.852 810.016 395.011 805.01 395.181 798.342 395.001 791.053 396.062 785.106 392.368 778.698 387.902 775.224 380.654 771.65 373.966 765.102 361.761 758.674 349.497 752.096 337.322 746.039 326.369 740.453 315.176 734.295 304.283 742.785 305.364 751.346 304.663 759.866 304.903 764.551 305.064 769.257 304.823 773.872 303.942L774.023 303.922C780.781 318.109 788.21 332.016 794.447 346.463 794.867 332.096 793.326 317.659 794.707 303.342L794.958 302.671C796.299 303.972 798.001 305.004 799.954 304.863 805.971 304.994 811.998 304.833 818.025 304.933 820.068 304.693 822.761 305.304 824.162 303.342 825.094 296.884 824.343 290.326 824.403 283.828Z" fill="#00B0F0" transform="matrix(1 0 0 1.00098 2947 1449.06)"/><path d="M131.697 304.533C133.069 306.225 134.751 307.967 137.143 307.797 147.676 307.987 158.219 307.787 168.761 307.787 168.871 310.72 169.021 313.664 169.072 316.617 168 337.642 161.392 359.328 146.625 374.857 134.841 387.502 118.141 394.71 101.181 396.893 83.92 399.066 66.0387 398.235 49.4189 392.818 33.56 387.622 20.0739 375.718 12.9554 360.62 9.55138 353.942 7.69918 346.643 5.87701 339.425 5.18618 334.469 4.51538 329.513 3.85459 324.557 3.43409 319.04 3.43409 313.504 3.30394 307.977 15.7388 307.807 28.1736 308.137 40.5984 307.847 40.5283 314.034 41.3993 320.162 41.8699 326.319 43.5319 338.423 47.1862 351.259 56.7376 359.569 66.8697 368.369 81.397 369.801 94.2223 368.109 106.647 366.857 117.79 358.798 123.727 347.945 130.856 334.769 132.328 319.271 131.697 304.533Z" fill="#00B0F0" transform="matrix(1 0 0 1.00098 2947 1449.06)"/><path d="M357.696 310.21C364.935 311.211 372.234 310.72 379.512 310.861 383.727 310.921 387.942 310.53 392.117 309.949 391.857 336.471 392.107 362.993 391.987 389.514 392.207 392.488 389.134 394.16 386.641 394.69 380.964 395.762 375.157 396.002 369.41 395.702 365.225 395.291 360.83 395.201 357.156 392.898 356.865 392.388 356.275 391.377 355.984 390.866 355.854 364.374 356.064 337.883 355.874 311.391 356.475 310.991 357.086 310.6 357.696 310.21Z" fill="#00B0F0" transform="matrix(1 0 0 1.00098 2947 1449.06)"/><path d="M227.281 312.663C242.95 311.752 258.618 310.52 274.337 310.68 279.964 310.82 285.761 309.849 291.237 311.621 289.665 312.232 288.083 312.833 286.491 313.384 290.226 315.476 293.96 317.699 296.964 320.802 304.753 328.391 309.018 338.644 313.213 348.475 314.335 351.089 315.476 353.692 316.637 356.285 319.891 363.964 323.345 371.563 326.479 379.302 328.011 383.267 329.693 387.282 329.853 391.597 329.513 392.147 328.822 393.249 328.472 393.799 324.006 395.561 319.11 395.572 314.385 395.792 308.297 395.782 302.14 396.052 296.163 394.701 291.818 393.769 291.157 388.723 289.525 385.329 288.844 383.657 288.163 382.005 287.493 380.353 282.317 367.778 277.741 354.953 271.934 342.658 268.56 335.61 263.985 328.381 256.496 325.208 249.658 322.494 242.139 323.265 234.95 323.155 234.85 345.592 235.03 368.019 234.86 390.445 234.91 393.129 231.876 394.14 229.754 394.701 221.504 396.202 212.984 396.192 204.734 394.761 202.151 394.21 198.847 392.748 199.478 389.524 199.478 363.704 199.448 337.873 199.488 312.052 208.709 313.253 218.02 312.362 227.281 312.663Z" fill="#00B0F0" transform="matrix(1 0 0 1.00098 2947 1449.06)"/><path d="M421.152 311.011C432.916 310.841 444.68 310.851 456.434 310.981 457.886 318.95 457.756 327.46 461.831 334.719 466.756 348.035 476.908 359.689 490.495 364.514 504.732 369.651 521.462 370.021 535.078 362.842 534.928 349.296 535.258 335.76 534.898 322.224 523.224 321.984 511.54 322.504 499.886 321.944 511.49 320.642 523.244 321.273 534.898 321.703 535.328 322.785 535.759 323.856 536.209 324.947 543.688 325.077 551.177 324.927 558.666 325.017 562.45 325.037 566.285 325.298 570.029 324.557 570.62 321.784 570.84 318.94 571.101 316.117 570.88 325.228 570.971 334.349 570.86 343.469 570.31 346.073 570.32 348.756 570.86 351.359 570.72 361.09 571.561 370.902 570.2 380.574 569.679 384.929 565.644 387.632 561.79 388.914 551.698 392.538 541.185 395.081 530.542 396.413 509.607 399.276 487.621 398.285 467.968 389.945 451.628 383.197 438.142 370.301 430.273 354.513 429.061 351.759 427.83 349.026 426.709 346.243 424.726 340.476 423.124 334.569 422.283 328.532 421.983 322.685 421.152 316.868 421.152 311.011Z" fill="#00B0F0" transform="matrix(1 0 0 1.00098 2947 1449.06)"/><path d="M632.804 312.853C636.389 312.923 639.893 312.072 643.277 310.961 643.137 337.612 643.157 364.264 643.267 390.916 641.875 392.748 640.123 394.4 637.73 394.701 629.35 396.222 620.68 396.212 612.31 394.65 609.877 394.06 606.793 392.518 607.154 389.544 607.054 363.934 607.224 338.313 607.074 312.703 615.644 313.083 624.224 312.873 632.804 312.853Z" fill="#00B0F0" transform="matrix(1 0 0 1.00098 2947 1449.06)"/></g></g></g></g></svg>