<svg width="1009" height="224" xmlns="http://www.w3.org/2000/svg" xmlns:xlink="http://www.w3.org/1999/xlink" xml:space="preserve" overflow="hidden"><defs><clipPath id="clip0"><rect x="2280" y="1458" width="1009" height="224"/></clipPath></defs><g clip-path="url(#clip0)" transform="translate(-2280 -1458)"><path d="M2360.74 1462.53C2384.14 1455.66 2409.79 1456.62 2432.58 1465.31 2442.71 1469.16 2452.27 1474.49 2460.88 1481.05 2467.63 1486 2473.42 1492.09 2479.11 1498.19 2483.22 1502.76 2486.72 1507.85 2489.73 1513.2 2494.98 1522.62 2499.16 1532.67 2501.73 1543.15 2503.88 1551.72 2504.9 1560.56 2505 1569.39L2505 1570.62C2504.89 1582.35 2503.04 1594.08 2499.31 1605.22 2496.61 1613.38 2492.9 1621.2 2488.43 1628.54 2479.29 1643.36 2466.63 1656 2451.8 1665.18 2443.16 1670.5 2433.81 1674.71 2424.04 1677.52 2414.01 1680.47 2403.55 1681.89 2393.1 1682L2391.86 1682C2382.1 1681.89 2372.34 1680.65 2362.93 1678.07 2341.89 1672.42 2322.65 1660.44 2308.25 1644.17 2301.48 1636.49 2295.47 1628.08 2290.99 1618.86 2288.46 1613.87 2286.57 1608.6 2284.79 1603.32 2281.81 1593.72 2280.2 1583.7 2280 1573.66L2280 1568.77C2280.13 1562.97 2280.61 1557.19 2281.57 1551.47 2284.85 1531.56 2293.76 1512.61 2306.95 1497.3 2321 1480.85 2339.92 1468.58 2360.74 1462.53Z" fill="#FFC506" fill-rule="evenodd"/><path d="M2389.92 1471.09C2397.86 1470.64 2405.77 1471.9 2413.51 1473.58 2422.79 1475.66 2431.86 1478.69 2440.54 1482.59 2445.83 1485.06 2451 1487.88 2455.65 1491.44 2458.82 1493.91 2461.83 1496.73 2463.75 1500.3 2465.02 1502.61 2465.41 1505.44 2464.5 1507.95 2463.24 1511.43 2460.61 1514.21 2457.87 1516.62 2450.49 1522.82 2441.62 1526.95 2432.67 1530.37 2421.82 1534.4 2410.51 1537.3 2399 1538.6 2391.02 1539.53 2382.96 1538.72 2375.08 1537.4 2364.35 1535.56 2353.79 1532.65 2343.7 1528.58 2338.3 1526.37 2333.01 1523.79 2328.18 1520.5 2325.42 1518.59 2322.79 1516.42 2320.69 1513.78 2319.26 1511.93 2318.06 1509.74 2318 1507.35 2317.96 1504.98 2319 1502.74 2320.32 1500.82 2322.02 1498.39 2324.15 1496.27 2326.44 1494.38 2333.46 1488.71 2341.62 1484.64 2349.92 1481.18 2354.92 1479.14 2360.03 1477.37 2365.21 1475.85 2373.27 1473.52 2381.53 1471.7 2389.92 1471.09Z" fill="#41B349" fill-rule="evenodd"/><path d="M2476.04 1513C2479.34 1517.92 2482.17 1523.14 2484.49 1528.59 2486.29 1532.64 2487.61 1536.87 2488.94 1541.09 2494.52 1560.33 2494.37 1581.19 2488.36 1600.32 2485.45 1609.97 2481.19 1619.25 2475.44 1627.57 2472.61 1631.61 2469.43 1635.48 2465.61 1638.63 2463.97 1639.95 2462.21 1641.18 2460.19 1641.84 2458.59 1642.35 2456.98 1641.56 2455.57 1640.87 2450.93 1638.39 2447.24 1634.5 2443.9 1630.51 2437.8 1622.97 2433.13 1614.32 2429.87 1605.21 2425.64 1593.78 2423.67 1581.54 2424.05 1569.37 2424.32 1561.26 2425.59 1553.19 2427.8 1545.38 2438.74 1542 2449.5 1537.68 2459.16 1531.48 2463.37 1528.73 2467.35 1525.58 2470.67 1521.79 2472.92 1519.17 2474.84 1516.24 2476.04 1513Z" fill="#708FC5" fill-rule="evenodd"/><path d="M2297.45 1539.85C2300.19 1531.47 2304.02 1523.44 2308.75 1516 2310.28 1519.13 2312.43 1521.93 2314.91 1524.37 2319.19 1528.57 2324.26 1531.88 2329.53 1534.7 2337.09 1538.75 2345.17 1541.73 2353.35 1544.27 2357.91 1565.66 2356.53 1588.23 2349.62 1608.96 2346.71 1617.58 2342.86 1625.96 2337.47 1633.32 2335.27 1636.22 2332.86 1639.07 2329.77 1641.04 2328.7 1641.7 2327.41 1642.33 2326.15 1641.8 2323 1640.69 2320.34 1638.54 2317.89 1636.33 2310.07 1628.97 2304.34 1619.65 2300.01 1609.89 2297.48 1603.88 2295.37 1597.67 2294.05 1591.28 2290.36 1574.26 2291.75 1556.28 2297.45 1539.85Z" fill="#DA4A37" fill-rule="evenodd"/><path d="M2365.33 1548C2376.84 1550.5 2388.72 1552.19 2400.51 1550.85 2405.24 1550.33 2409.94 1549.54 2414.59 1548.52 2410.4 1567.33 2411.26 1587.29 2417.45 1605.58 2421.11 1616.87 2426.66 1627.59 2434.07 1636.89 2438.76 1642.65 2444.22 1648.05 2451 1651.29 2443.17 1656.88 2434.54 1661.38 2425.42 1664.5 2401.54 1672.81 2374.5 1671.67 2351.45 1661.28 2345.31 1658.56 2339.46 1655.18 2334 1651.28 2337.96 1649.29 2341.2 1646.16 2344.07 1642.84 2350.93 1634.68 2355.68 1624.99 2359.33 1615.05 2366.93 1593.68 2369.16 1570.37 2365.33 1548Z" fill="#FFC506" fill-rule="evenodd"/><path d="M2562.57 1537.13C2567.17 1530.07 2576.74 1527.91 2584.6 1529.49 2588.43 1530.31 2589.33 1536.3 2585.7 1537.99 2581.78 1539.5 2576.97 1538.4 2573.56 1541.31 2568.2 1545.62 2567.41 1553.04 2567.01 1559.41 2572.43 1559.42 2578.01 1558.18 2583.33 1559.65 2586.4 1560.33 2587.82 1564.48 2585.86 1566.89 2584.63 1568.64 2582.31 1568.65 2580.39 1568.77 2575.8 1568.91 2571.21 1569.19 2566.63 1569.48 2565.12 1585.01 2568.09 1600.75 2565.33 1616.16 2564.6 1621 2557.54 1621.24 2555.72 1617.03 2555.16 1612.69 2556.46 1608.37 2556.48 1604.03 2556.85 1592.83 2556.33 1581.61 2556.33 1570.41 2553.08 1570.56 2549.78 1571.07 2546.53 1570.65 2542.64 1570.05 2541.66 1563.87 2545.13 1562.07 2548.75 1560.11 2553.05 1560.54 2557.02 1560.25 2557.94 1552.4 2558.3 1544.06 2562.57 1537.13Z" fill="#272727" fill-rule="evenodd"/><path d="M2607.27 1528.43C2609.41 1527.68 2612.03 1527.87 2613.81 1529.36 2615.14 1530.95 2614.87 1533.17 2615 1535.1 2614.71 1557.13 2614.32 1579.15 2613.59 1601.16 2613.42 1604.34 2613.65 1607.61 2612.79 1610.72 2611.76 1615.47 2602.98 1614.97 2603.09 1609.83 2602.67 1598.52 2603.8 1587.22 2603.96 1575.91 2604.08 1561.99 2604.46 1548.06 2604.62 1534.14 2604.63 1532.01 2604.86 1529.26 2607.27 1528.43Z" fill="#272727" fill-rule="evenodd"/><path d="M2702.87 1537.3C2707.44 1530.11 2717.29 1527.98 2725.35 1529.43 2729.64 1529.97 2730.37 1536.74 2726.35 1538.12 2722.06 1539.31 2716.97 1538.65 2713.49 1541.88 2708.79 1546.44 2707.83 1553.27 2707.59 1559.44 2713.29 1559.4 2719.24 1558.03 2724.77 1559.81 2728.92 1561.17 2728.6 1567.89 2724.09 1568.43 2718.45 1569.1 2712.74 1568.95 2707.08 1569.45 2706.22 1582.28 2707.38 1595.1 2706.88 1607.93 2706.54 1611.41 2706.64 1615.17 2704.82 1618.31 2702.39 1621.59 2695.72 1619.78 2695.83 1615.56 2695.98 1610.42 2696.97 1605.32 2696.94 1600.17 2696.96 1590.24 2696.59 1580.32 2696.77 1570.39 2693.27 1570.52 2689.75 1571.11 2686.27 1570.56 2682.33 1569.71 2681.81 1563.36 2685.49 1561.86 2689.2 1560.13 2693.46 1560.52 2697.46 1560.2 2698.15 1552.42 2698.69 1544.19 2702.87 1537.3Z" fill="#272727" fill-rule="evenodd"/><path d="M2747.08 1528.61C2749.13 1527.64 2751.82 1527.81 2753.64 1529.24 2755.38 1531.07 2754.83 1533.82 2755 1536.11 2754.63 1559.73 2754.24 1583.36 2753.39 1606.99 2753.22 1609.19 2753.08 1611.88 2751.01 1613.22 2748.59 1614.69 2744.4 1614.13 2743.47 1611.13 2742.6 1607.34 2743.2 1603.41 2743.24 1599.57 2744.24 1577.44 2744.36 1555.3 2744.77 1533.17 2744.77 1531.42 2745.24 1529.31 2747.08 1528.61Z" fill="#272727" fill-rule="evenodd"/><path d="M2778.45 1534.59C2782.24 1532.63 2787.39 1535.83 2786.98 1540.2 2787.04 1544.88 2780.96 1547.78 2777.4 1544.77 2773.79 1542.34 2774.35 1536.18 2778.45 1534.59Z" fill="#272727" fill-rule="evenodd"/><path d="M2824.94 1554.93C2829.12 1553.87 2833.3 1551.09 2837.74 1552.3 2840.5 1553.24 2840.72 1556.39 2841.13 1558.81 2841.5 1561.99 2842.54 1565.29 2841.65 1568.48 2840.61 1571.36 2836.89 1571.93 2834.31 1570.89 2832.15 1569.2 2831.98 1566.27 2831.17 1563.88 2825.54 1565.68 2819.47 1566.66 2814.47 1569.98 2812.37 1571.28 2811.24 1573.49 2810.43 1575.71 2818.7 1578.03 2828.08 1578.79 2834.69 1584.83 2841.82 1590.99 2843.01 1604.01 2835.07 1610 2828.76 1614.92 2820.17 1615.45 2812.48 1614.75 2807.02 1613.95 2800.96 1612.57 2797.24 1608.2 2794.77 1605.37 2796.16 1600.47 2799.89 1599.57 2802.98 1598.66 2805.06 1601.88 2807.71 1602.82 2812.31 1604.48 2817.39 1604.73 2822.21 1604.03 2825.09 1603.49 2828.49 1602.68 2830.02 1599.9 2830.67 1596.6 2828.97 1593.18 2826.11 1591.43 2819.08 1587.01 2809.49 1588.52 2803.06 1582.88 2798.7 1578.19 2799.76 1570.57 2803.01 1565.55 2808.11 1558.64 2817.3 1557.5 2824.94 1554.93Z" fill="#272727" fill-rule="evenodd"/><path d="M2649.78 1558.25C2655.27 1557.49 2661.36 1558.36 2665.57 1562.17 2669.98 1566.18 2672.31 1571.95 2673.37 1577.65 2674.82 1586.79 2673.98 1596.76 2668.66 1604.63 2664.83 1610.76 2657.84 1615.17 2650.38 1614.97 2644.07 1615.31 2637.96 1612.35 2633.88 1607.73 2627.21 1600.62 2625.98 1590.11 2627.7 1580.95 2629.86 1570.18 2637.95 1559.46 2649.78 1558.25M2649.81 1568.95C2642.45 1570.67 2638.66 1578.35 2637.72 1585.12 2636.91 1591.03 2637.73 1597.95 2642.74 1601.97 2647.3 1605.73 2654.78 1605.1 2658.9 1600.95 2662.99 1597.45 2664.33 1591.91 2664.22 1586.78 2664.11 1581.69 2663.8 1576.13 2660.58 1571.88 2658.13 1568.69 2653.56 1568.14 2649.81 1568.95Z" fill="#272727" fill-rule="evenodd"/><path d="M2777.25 1559.32C2780.26 1558.12 2784.01 1560.43 2783.98 1563.76 2784.18 1572.73 2782.77 1581.68 2783.04 1590.67 2782.97 1596.61 2783.79 1602.6 2783.11 1608.52 2782.21 1613.2 2774.49 1613.12 2773.6 1608.51 2772.54 1594.9 2773.05 1581.22 2773.88 1567.61 2774.06 1564.68 2773.66 1560.32 2777.25 1559.32Z" fill="#272727" fill-rule="evenodd"/><path d="M3079.26 1536.87C3085.22 1530.42 3094.92 1530.36 3103 1531.68 3103.01 1535.4 3102.88 1539.12 3102.92 1542.83 3098.89 1542.84 3093.78 1542.05 3091.01 1545.71 3089.24 1548.68 3089.86 1552.36 3089.59 1555.65 3093.38 1555.73 3097.18 1555.74 3100.98 1555.79 3100.94 1559.23 3100.94 1562.69 3100.93 1566.13 3097.18 1566.14 3093.43 1566.16 3089.69 1566.24 3089.71 1581.48 3089.77 1596.73 3089.67 1611.97 3084.65 1612 3079.62 1612.01 3074.6 1611.97 3074.5 1596.73 3074.55 1581.48 3074.58 1566.24 3071.73 1566.18 3068.88 1566.17 3066.05 1566.14 3066.01 1562.69 3066 1559.22 3066 1555.76 3068.83 1555.73 3071.69 1555.71 3074.53 1555.67 3074.38 1549.17 3074.53 1541.95 3079.26 1536.87Z" fill="#1C1C1C" fill-rule="evenodd" fill-opacity="0.74902"/><path d="M2949.04 1532.1C2954 1531.97 2958.95 1531.97 2963.91 1532.11 2964.03 1558.74 2964.04 1585.37 2963.91 1611.98 2958.95 1612 2954 1612.01 2949.04 1611.97 2948.99 1585.36 2948.99 1558.73 2949.04 1532.1Z" fill="#1C1C1C" fill-rule="evenodd" fill-opacity="0.74902"/><path d="M2880.01 1536.07C2890.04 1536.02 2900.07 1535.94 2910.1 1536.08 2917.4 1536.14 2924.87 1538.28 2930.48 1543.08 2937.57 1549.66 2939.68 1560.45 2936.67 1569.49 2934.31 1576.72 2927.48 1581.56 2920.42 1583.59 2912.31 1585.74 2903.83 1584.47 2895.54 1584.82 2895.52 1593.87 2895.55 1602.93 2895.53 1611.99 2890.35 1612 2885.18 1612 2880.01 1611.99 2880 1586.68 2879.99 1561.38 2880.01 1536.07M2895.53 1548.51C2895.53 1556.53 2895.53 1564.55 2895.53 1572.57 2902.19 1572.45 2909.04 1573.42 2915.56 1571.77 2925.81 1568.11 2923.82 1550.08 2913.01 1548.79 2907.22 1547.97 2901.35 1548.54 2895.53 1548.51Z" fill="#1C1C1C" fill-rule="evenodd" fill-opacity="0.74902"/><path d="M3037 1541.09C3041.88 1541.09 3046.76 1541.13 3051.64 1541 3051.62 1545.74 3051.63 1550.49 3051.68 1555.24 3054.85 1555.29 3058.02 1555.28 3061.21 1555.35 3061.17 1558.81 3061.17 1562.27 3061.16 1565.74 3058 1565.79 3054.84 1565.77 3051.69 1565.84 3051.58 1574.71 3051.67 1583.57 3051.6 1592.43 3051.71 1594.76 3051.52 1597.34 3052.76 1599.4 3055.24 1601.55 3058.81 1600.62 3061.8 1600.95 3061.57 1604.44 3062.72 1608.5 3061.19 1611.65 3054.98 1613.75 3047.28 1613.65 3041.83 1609.59 3037.67 1606.22 3037.01 1600.46 3036.9 1595.39 3036.79 1585.53 3036.99 1575.68 3036.83 1565.83 3034.22 1565.8 3031.64 1565.78 3029.05 1565.78 3029.01 1562.28 3029 1558.8 3029 1555.3 3031.61 1555.29 3034.22 1555.27 3036.84 1555.25 3036.87 1550.53 3036.85 1545.81 3037 1541.09Z" fill="#1C1C1C" fill-rule="evenodd" fill-opacity="0.74902"/><path d="M2980.83 1560.01C2988.06 1553.98 2998.27 1552.84 3007.14 1555.03 3013.8 1556.63 3019.95 1561.97 3021.15 1569.01 3022.03 1574.46 3021.54 1580 3021.65 1585.5 3021.82 1594.34 3020.61 1603.51 3024 1611.93 3018.96 1611.99 3013.93 1611.96 3008.9 1611.99 3008.25 1610.45 3007.64 1608.9 3007.04 1607.36 3004.38 1609.22 3001.78 1611.31 2998.64 1612.24 2990.68 1614.42 2981.12 1611.89 2976.43 1604.68 2973.36 1599.52 2973.17 1592.65 2976.03 1587.35 2977.99 1583.55 2981.66 1580.95 2985.53 1579.47 2992.31 1576.95 2999.62 1577.38 3006.7 1577.12 3006.56 1573.8 3006.8 1570.02 3004.51 1567.35 3002.09 1564.63 2997.99 1564.47 2994.72 1565.31 2991.83 1566.33 2990.67 1569.45 2989.5 1572.03 2984.68 1572.07 2979.87 1572.09 2975.06 1571.86 2975.66 1567.41 2977.3 1562.92 2980.83 1560.01M2993.36 1587.41C2987.74 1589.43 2987.4 1599.39 2993.3 1601.32 2997.12 1602.34 3001.43 1601.23 3004.48 1598.72 3008 1595.39 3006.34 1590.01 3006.67 1585.72 3002.21 1585.82 2997.49 1585.39 2993.36 1587.41Z" fill="#1C1C1C" fill-rule="evenodd" fill-opacity="0.74902"/><path d="M3126.42 1554.61C3134.1 1553.16 3142.53 1554.19 3149.07 1558.68 3156.07 1563.75 3159.53 1572.42 3159.94 1580.83 3160.31 1588.52 3159.1 1596.73 3154.34 1603.01 3145.03 1615.64 3123.97 1616.25 3113.31 1605.07 3105.36 1595.91 3104.42 1582.35 3107.97 1571.16 3110.52 1562.79 3117.89 1556.38 3126.42 1554.61M3129.33 1566.28C3124.32 1568.14 3121.87 1573.66 3121.51 1578.69 3121 1584.79 3120.97 1591.55 3124.46 1596.87 3127.25 1601.19 3133.35 1602.09 3137.84 1600.16 3141.95 1598.2 3143.73 1593.56 3144.3 1589.33 3145.05 1583.28 3145.04 1576.8 3142.22 1571.25 3139.97 1566.64 3134.05 1564.9 3129.33 1566.28Z" fill="#1C1C1C" fill-rule="evenodd" fill-opacity="0.74902"/><path d="M3191.27 1555.87C3194.38 1554.67 3197.76 1554.97 3201 1555.26 3200.99 1559.91 3200.98 1564.56 3200.96 1569.21 3195.91 1568.94 3190.21 1568.49 3186.07 1571.93 3184.03 1573.34 3184.1 1576 3184.07 1578.18 3184.1 1589.45 3184.21 1600.72 3184.03 1611.99 3179.02 1612 3174.01 1612 3169.01 1611.99 3168.99 1593.33 3169 1574.69 3169.01 1556.03 3173.76 1555.98 3178.51 1555.96 3183.27 1556.17 3183.38 1558.34 3183.5 1560.51 3183.64 1562.67 3185.68 1559.95 3187.87 1556.98 3191.27 1555.87Z" fill="#1C1C1C" fill-rule="evenodd" fill-opacity="0.74902"/><path d="M3222.67 1561.22C3226.44 1557.74 3230.84 1554.42 3236.19 1554.22 3243.14 1553.15 3250.76 1556.04 3254.08 1562.55 3257.01 1559.14 3260.43 1555.79 3264.96 1554.81 3271.4 1553.34 3279.25 1553.72 3284.01 1558.94 3288.34 1563.31 3288.88 1569.89 3289 1575.73 3288.96 1587.81 3289.05 1599.89 3288.94 1611.97 3283.94 1612.01 3278.94 1612.01 3273.94 1611.97 3273.83 1599.88 3273.92 1587.77 3273.91 1575.68 3273.95 1572.47 3273.33 1568.73 3270.35 1566.92 3265.22 1564.31 3257.2 1566.79 3256.16 1572.99 3255.99 1585.99 3256.29 1598.99 3256.05 1611.98 3251.05 1612 3246.06 1612 3241.08 1611.98 3241.04 1600.2 3241.12 1588.42 3241.06 1576.64 3241.03 1573.13 3240.53 1568.96 3237.29 1566.92 3231.78 1563.99 3222.23 1567.52 3223.01 1574.7 3223.04 1587.13 3223.16 1599.55 3222.97 1611.98 3217.98 1612 3212.99 1612 3208.01 1611.98 3207.99 1593.04 3208 1574.1 3208 1555.16 3212.73 1555.11 3217.46 1555.1 3222.17 1555.3 3222.33 1557.27 3222.5 1559.24 3222.67 1561.22Z" fill="#1C1C1C" fill-rule="evenodd" fill-opacity="0.74902"/></g></svg>