<svg width="1098" height="252" xmlns="http://www.w3.org/2000/svg" xmlns:xlink="http://www.w3.org/1999/xlink" xml:space="preserve" overflow="hidden"><defs><clipPath id="clip0"><rect x="1398" y="1978" width="1098" height="252"/></clipPath></defs><g clip-path="url(#clip0)" transform="translate(-1398 -1978)"><path d="M1478.74 1982.55C1502.14 1975.65 1527.79 1976.61 1550.58 1985.35 1560.71 1989.21 1570.27 1994.57 1578.88 2001.15 1585.63 2006.13 1591.42 2012.24 1597.11 2018.37 1601.22 2022.95 1604.72 2028.08 1607.73 2033.44 1612.98 2042.91 1617.16 2053.01 1619.73 2063.53 1621.88 2072.14 1622.9 2081.01 1623 2089.88L1623 2091.12C1622.89 2102.9 1621.04 2114.69 1617.31 2125.88 1614.61 2134.08 1610.9 2141.93 1606.43 2149.3 1597.29 2164.19 1584.63 2176.88 1569.8 2186.11 1561.16 2191.45 1551.81 2195.68 1542.04 2198.5 1532.01 2201.46 1521.55 2202.89 1511.1 2203L1509.86 2203C1500.1 2202.89 1490.34 2201.65 1480.93 2199.05 1459.89 2193.38 1440.65 2181.35 1426.25 2165 1419.48 2157.29 1413.47 2148.84 1408.99 2139.58 1406.46 2134.57 1404.57 2129.28 1402.79 2123.96 1399.81 2114.32 1398.2 2104.26 1398 2094.18L1398 2089.26C1398.13 2083.44 1398.61 2077.63 1399.57 2071.89 1402.85 2051.89 1411.76 2032.86 1424.95 2017.47 1439 2000.95 1457.92 1988.63 1478.74 1982.55Z" fill="#FFC506" fill-rule="evenodd"/><path d="M1507.92 1992.09C1515.86 1991.64 1523.77 1992.9 1531.51 1994.58 1540.79 1996.66 1549.86 1999.69 1558.54 2003.59 1563.83 2006.06 1569 2008.88 1573.65 2012.44 1576.82 2014.91 1579.83 2017.73 1581.75 2021.3 1583.02 2023.61 1583.41 2026.44 1582.5 2028.95 1581.24 2032.43 1578.61 2035.21 1575.87 2037.62 1568.49 2043.82 1559.62 2047.95 1550.67 2051.37 1539.82 2055.4 1528.51 2058.31 1517 2059.6 1509.02 2060.53 1500.96 2059.72 1493.08 2058.4 1482.35 2056.56 1471.79 2053.65 1461.7 2049.58 1456.3 2047.37 1451.01 2044.79 1446.18 2041.5 1443.42 2039.59 1440.79 2037.42 1438.69 2034.78 1437.26 2032.93 1436.06 2030.74 1436 2028.35 1435.96 2025.98 1437 2023.74 1438.32 2021.82 1440.02 2019.39 1442.15 2017.27 1444.44 2015.38 1451.46 2009.71 1459.62 2005.64 1467.92 2002.18 1472.92 2000.14 1478.03 1998.37 1483.21 1996.85 1491.27 1994.52 1499.53 1992.7 1507.92 1992.09Z" fill="#41B349" fill-rule="evenodd"/><path d="M1593.29 2033C1596.54 2037.92 1599.33 2043.14 1601.62 2048.59 1603.39 2052.64 1604.69 2056.87 1606 2061.09 1611.5 2080.33 1611.35 2101.19 1605.43 2120.32 1602.56 2129.97 1598.36 2139.25 1592.7 2147.57 1589.9 2151.61 1586.78 2155.48 1583.01 2158.63 1581.39 2159.95 1579.65 2161.18 1577.66 2161.83 1576.09 2162.35 1574.5 2161.56 1573.12 2160.87 1568.54 2158.39 1564.91 2154.5 1561.61 2150.51 1555.6 2142.97 1551 2134.32 1547.79 2125.21 1543.61 2113.78 1541.67 2101.54 1542.05 2089.37 1542.31 2081.26 1543.56 2073.19 1545.74 2065.38 1556.53 2062 1567.13 2057.68 1576.65 2051.48 1580.8 2048.73 1584.73 2045.58 1587.99 2041.79 1590.21 2039.17 1592.11 2036.24 1593.29 2033Z" fill="#708FC5" fill-rule="evenodd"/><path d="M1415.36 2060.66C1418.06 2052.35 1421.83 2044.38 1426.49 2037 1428 2040.1 1430.11 2042.88 1432.55 2045.31 1436.77 2049.47 1441.75 2052.76 1446.94 2055.55 1454.39 2059.57 1462.34 2062.53 1470.39 2065.05 1474.88 2086.27 1473.52 2108.66 1466.72 2129.23 1463.85 2137.77 1460.06 2146.09 1454.76 2153.39 1452.59 2156.26 1450.22 2159.09 1447.18 2161.05 1446.13 2161.71 1444.85 2162.33 1443.62 2161.81 1440.51 2160.7 1437.9 2158.57 1435.49 2156.37 1427.79 2149.07 1422.15 2139.82 1417.88 2130.15 1415.39 2124.18 1413.32 2118.03 1412.01 2111.69 1408.38 2094.79 1409.76 2076.96 1415.36 2060.66Z" fill="#DA4A37" fill-rule="evenodd"/><path d="M1483.33 2069C1494.84 2071.5 1506.72 2073.19 1518.51 2071.85 1523.24 2071.33 1527.94 2070.54 1532.59 2069.52 1528.4 2088.33 1529.26 2108.3 1535.45 2126.58 1539.11 2137.87 1544.66 2148.59 1552.07 2157.89 1556.76 2163.65 1562.22 2169.05 1569 2172.29 1561.17 2177.88 1552.54 2182.38 1543.42 2185.5 1519.54 2193.81 1492.5 2192.67 1469.45 2182.28 1463.31 2179.56 1457.46 2176.18 1452 2172.28 1455.96 2170.29 1459.2 2167.16 1462.07 2163.84 1468.93 2155.68 1473.68 2145.99 1477.33 2136.05 1484.93 2114.68 1487.16 2091.37 1483.33 2069Z" fill="#FFC506" fill-rule="evenodd"/><text fill="#272727" font-family="Comic Sans MS,Comic Sans MS_MSFontService,sans-serif" font-weight="400" font-size="110" transform="matrix(1 0 0 1 1654.03 2135)">f</text><text fill="#272727" font-family="Comic Sans MS,Comic Sans MS_MSFontService,sans-serif" font-weight="400" font-size="110" transform="matrix(1 0 0 1 1710.18 2135)">loflis</text><text fill="#272727" fill-opacity="0.74902" font-family="Roboto,Roboto_MSFontService,sans-serif" font-weight="700" font-size="110" transform="matrix(1 0 0 1 1996.64 2135)">Platform</text></g></svg>