<?xml version="1.0" encoding="UTF-8" ?>
<!DOCTYPE svg PUBLIC "-//W3C//DTD SVG 1.1//EN" "http://www.w3.org/Graphics/SVG/1.1/DTD/svg11.dtd">
<svg width="389pt" height="389pt" viewBox="0 0 389 389" version="1.1" xmlns="http://www.w3.org/2000/svg">
<g id="#3eb7e5ff">
<path fill="#3eb7e5" opacity="1.00" d=" M 190.82 0.00 L 201.70 0.00 C 230.89 1.97 259.46 9.94 286.21 21.62 C 299.88 27.90 313.34 35.25 324.40 45.59 C 329.97 51.10 335.64 57.79 336.01 66.00 C 336.22 73.88 331.01 80.49 325.87 85.91 C 311.97 99.17 294.41 107.70 276.77 114.84 C 252.80 124.08 227.66 130.67 202.02 132.79 C 177.73 133.98 153.59 129.14 130.28 122.75 C 111.61 117.32 93.13 110.57 76.41 100.50 C 68.38 95.52 60.51 89.79 55.00 81.99 C 52.84 78.72 50.99 74.99 51.05 70.98 C 51.01 65.94 53.44 61.29 56.28 57.27 C 63.17 48.10 72.61 41.32 82.24 35.29 C 100.34 24.32 120.14 16.41 140.32 10.20 C 156.75 5.09 173.69 1.70 190.82 0.00 Z" />
<path fill="#3eb7e5" opacity="1.00" d=" M 356.38 81.04 C 376.98 112.44 387.98 149.85 389.00 187.31 L 389.00 197.33 C 387.98 230.57 379.01 263.62 362.77 292.66 C 355.39 305.44 346.76 317.83 335.27 327.25 C 331.60 329.88 327.66 332.97 322.95 333.02 C 319.68 332.54 316.76 330.84 313.99 329.14 C 305.17 323.43 298.13 315.45 291.75 307.20 C 278.23 289.30 268.85 268.53 262.82 246.99 C 253.45 213.58 254.08 177.76 263.23 144.38 C 276.03 140.14 288.83 135.74 300.96 129.80 C 314.84 123.13 328.40 115.32 339.70 104.72 C 346.77 98.07 352.94 90.21 356.38 81.04 Z" />
<path fill="#3eb7e5" opacity="1.00" d=" M 0.00 191.18 C 1.43 154.78 12.93 118.97 32.16 88.09 C 39.06 101.84 51.31 111.84 64.14 119.82 C 80.90 130.01 99.29 137.17 117.95 143.02 C 128.17 192.07 122.92 244.43 102.38 290.19 C 96.74 302.28 90.01 314.04 81.01 323.97 C 77.66 327.45 74.00 330.89 69.46 332.73 C 67.05 333.62 64.66 332.28 62.51 331.32 C 56.56 328.30 51.51 323.82 46.84 319.12 C 35.22 307.19 26.09 293.02 18.89 278.05 C 7.43 254.41 0.96 228.38 0.00 202.12 L 0.00 191.18 Z" />
<path fill="#3eb7e5" opacity="1.00" d=" M 142.86 150.05 C 158.06 153.37 173.48 155.93 189.04 156.45 C 205.65 157.08 222.19 154.55 238.36 151.04 C 232.89 176.20 231.84 202.34 235.60 227.83 C 240.86 262.29 254.16 295.86 275.62 323.48 C 284.81 335.05 295.61 345.77 308.96 352.44 C 277.32 375.31 238.69 388.28 199.65 389.00 L 189.67 389.00 C 151.20 387.85 113.21 375.01 82.05 352.39 C 92.51 346.88 100.51 337.80 107.33 328.34 C 118.12 313.36 125.89 296.44 131.97 279.07 C 146.14 237.84 150.04 193.08 142.86 150.05 Z" />
</g>
</svg>
