<?xml version="1.0" encoding="UTF-8" ?>
<!DOCTYPE svg PUBLIC "-//W3C//DTD SVG 1.1//EN" "http://www.w3.org/Graphics/SVG/1.1/DTD/svg11.dtd">
<svg width="806px" height="239px" viewBox="0 0 806 239" version="1.1" xmlns="http://www.w3.org/2000/svg">
<g id="#ffffffff">
<path fill="#ffffff" opacity="1.00" d=" M 106.42 5.64 C 110.81 5.58 115.20 5.59 119.59 5.65 L 119.59 6.20 C 122.24 6.33 124.90 6.56 127.56 6.69 L 127.57 7.21 C 130.77 7.38 133.87 8.19 137.00 8.84 C 139.65 9.63 142.34 10.25 145.00 11.03 C 147.71 11.88 150.42 12.78 153.11 13.72 C 154.75 14.42 156.41 15.08 158.09 15.70 C 159.36 16.21 160.64 16.70 161.92 17.20 C 163.57 17.84 165.21 18.52 166.82 19.26 C 169.82 20.89 172.91 22.36 175.83 24.15 C 177.81 25.55 179.83 26.89 181.89 28.17 C 187.57 33.01 195.07 39.52 192.04 47.93 C 187.72 55.92 179.82 60.96 172.15 65.32 C 156.29 73.72 138.81 78.88 121.06 81.36 C 105.38 83.22 89.61 80.31 74.51 76.18 C 63.37 72.88 52.30 68.86 42.46 62.56 C 36.32 58.72 29.90 53.56 28.67 45.97 C 30.99 36.14 40.02 30.12 48.09 25.14 C 51.04 23.36 54.13 21.83 57.20 20.27 C 59.47 19.20 61.77 18.18 64.09 17.22 C 65.34 16.70 66.60 16.21 67.85 15.70 C 69.27 15.20 70.67 14.65 72.08 14.11 C 73.03 13.77 73.98 13.46 74.94 13.15 C 75.99 12.80 77.04 12.48 78.10 12.16 C 79.38 11.70 80.67 11.28 81.94 10.81 C 83.27 10.53 84.62 10.28 85.93 9.90 C 87.26 9.56 88.61 9.25 89.92 8.82 C 90.96 8.61 92.00 8.40 93.05 8.18 C 95.00 7.61 97.03 7.38 98.98 6.80 C 101.46 6.50 103.95 6.32 106.44 6.22 L 106.42 5.64 Z" />
<path fill="#ffffff" opacity="1.00" d=" M 304.13 32.01 C 305.45 31.67 306.78 31.39 308.12 31.08 C 314.04 29.92 320.16 30.11 326.15 30.59 C 328.01 31.44 329.82 32.39 331.54 33.52 C 333.42 36.34 333.87 39.69 333.14 42.98 C 331.79 45.45 329.57 47.12 327.02 48.23 C 320.92 48.96 314.35 48.48 308.85 51.70 C 302.34 55.08 298.80 62.07 296.77 68.82 C 295.07 74.89 294.43 81.21 294.30 87.50 C 302.82 86.96 311.35 86.05 319.89 86.54 C 323.93 86.99 328.58 88.48 330.40 92.47 C 331.03 94.74 330.64 97.13 330.56 99.44 C 328.74 102.73 325.24 104.63 321.52 104.72 C 312.11 104.86 302.72 105.49 293.34 106.22 C 293.20 113.84 292.80 121.44 292.60 129.05 C 292.76 148.66 294.55 168.38 292.09 187.92 C 291.46 191.79 291.13 196.38 287.83 199.02 C 285.24 201.15 281.74 200.58 278.66 200.39 C 274.82 198.44 271.84 194.57 272.75 190.04 C 275.41 172.84 274.77 155.39 274.52 138.05 C 274.51 127.94 274.49 117.83 274.53 107.72 C 268.20 108.13 261.76 109.43 255.45 108.23 C 248.62 106.56 247.05 95.77 253.20 92.29 C 259.98 88.21 268.21 89.69 275.72 88.81 C 276.91 74.85 277.93 60.26 284.62 47.65 C 288.11 40.98 294.03 35.80 301.05 33.10 C 302.07 32.73 303.10 32.37 304.13 32.01 Z" />
<path fill="#ffffff" opacity="1.00" d=" M 368.91 29.57 C 371.62 29.29 374.35 29.31 377.07 29.55 C 380.21 31.23 382.48 34.40 382.34 38.07 C 382.53 49.39 382.11 60.71 382.17 72.03 C 381.08 89.66 381.89 107.37 380.93 125.00 C 380.57 136.33 380.23 147.66 380.15 158.99 C 379.42 167.38 380.13 175.94 378.28 184.21 C 376.91 186.57 374.85 188.37 372.31 189.36 C 370.46 189.36 368.61 189.35 366.77 189.33 C 362.84 188.01 360.03 184.29 360.38 180.07 C 360.44 170.76 360.15 161.37 361.17 152.10 C 361.43 143.72 361.52 135.33 361.92 126.96 C 362.28 125.01 362.30 123.02 362.31 121.05 C 362.40 106.35 362.43 91.65 362.69 76.94 C 362.78 72.99 362.56 69.01 363.20 65.09 C 363.40 56.04 363.22 46.99 363.45 37.95 C 363.36 35.64 364.53 33.63 365.58 31.67 C 366.69 30.98 367.80 30.28 368.91 29.57 Z" />
<path fill="#ffffff" opacity="1.00" d=" M 564.14 32.07 C 570.58 30.09 577.39 30.02 584.06 30.40 C 587.66 30.72 591.70 32.44 593.01 36.09 C 594.41 39.83 593.44 44.79 589.77 46.86 C 585.96 49.26 581.30 48.35 577.08 49.13 C 570.61 49.81 564.52 53.55 561.15 59.15 C 555.80 67.54 554.68 77.77 554.36 87.50 C 562.86 86.98 571.37 86.06 579.90 86.53 C 583.75 86.97 588.20 88.21 590.22 91.86 C 592.01 95.61 591.13 101.00 587.29 103.13 C 583.25 105.40 578.45 104.69 574.02 104.87 C 567.20 105.32 560.39 105.75 553.56 105.97 C 553.06 113.31 553.04 120.67 552.70 128.01 C 552.74 148.05 554.67 168.20 552.14 188.17 C 551.48 192.13 551.10 196.93 547.44 199.36 C 544.87 201.23 541.53 200.49 538.60 200.35 C 536.36 198.64 533.49 196.96 533.05 193.91 C 532.28 190.91 533.22 187.86 533.44 184.86 C 534.89 174.97 534.81 164.95 534.82 154.97 C 534.54 139.22 534.56 123.47 534.61 107.72 C 528.47 108.16 522.26 109.29 516.13 108.35 C 513.15 107.86 511.11 105.51 509.84 102.94 C 509.55 100.63 509.44 98.28 509.81 95.97 C 515.55 87.46 527.03 89.86 535.78 88.81 C 537.09 74.44 537.99 59.26 545.40 46.49 C 548.85 40.37 554.53 35.73 561.03 33.16 C 562.06 32.79 563.10 32.43 564.14 32.07 Z" />
<path fill="#ffffff" opacity="1.00" d=" M 628.86 29.56 C 631.60 29.32 634.36 29.30 637.11 29.54 C 640.43 31.21 642.75 34.57 642.50 38.38 C 642.53 52.94 642.32 67.50 642.14 82.05 C 641.52 84.99 641.75 88.00 641.65 90.98 C 641.63 103.69 641.41 116.39 641.20 129.10 C 640.12 141.04 640.52 153.09 640.21 165.08 C 639.32 170.35 639.80 175.74 639.24 181.05 C 638.90 182.12 638.59 183.20 638.34 184.30 C 636.26 188.70 631.26 190.04 626.79 189.32 C 623.95 188.18 621.82 186.08 620.69 183.24 C 620.49 174.20 620.19 165.06 621.18 156.07 C 621.63 147.38 621.27 138.65 622.25 129.99 C 622.68 111.84 622.54 93.68 622.75 75.53 L 623.28 75.52 C 623.49 62.03 623.17 48.52 623.87 35.06 C 624.88 32.68 626.65 30.87 628.86 29.56 Z" />
<path fill="#ffffff" opacity="1.00" d=" M 688.73 39.66 C 694.44 39.41 700.37 43.14 701.34 49.02 C 702.89 55.74 696.80 62.79 689.97 62.35 C 682.94 62.58 676.86 54.93 679.11 48.13 C 680.23 43.61 684.45 40.80 688.73 39.66 Z" />
<path fill="#ffffff" opacity="1.00" d=" M 203.96 52.99 C 204.22 52.55 204.72 51.65 204.97 51.21 C 205.81 52.93 206.73 54.61 207.66 56.29 C 208.21 57.13 208.76 57.97 209.32 58.81 C 209.97 60.15 210.62 61.50 211.26 62.85 C 211.89 64.21 212.55 65.55 213.22 66.89 C 214.08 68.95 214.94 71.02 215.70 73.13 C 216.20 74.39 216.68 75.66 217.21 76.91 C 217.34 77.47 217.59 78.59 217.72 79.15 C 219.77 84.94 220.94 90.99 222.13 97.00 C 223.40 106.31 223.75 115.69 223.20 125.08 C 222.52 127.69 222.42 130.40 222.21 133.09 C 221.38 136.39 220.82 139.75 220.11 143.08 C 219.69 144.36 219.37 145.67 219.02 146.98 C 218.71 148.01 218.42 149.04 218.14 150.08 C 217.79 151.11 217.46 152.15 217.14 153.20 C 216.68 154.43 216.25 155.68 215.79 156.92 C 215.27 158.33 214.71 159.74 214.19 161.15 C 213.38 163.04 212.58 164.94 211.71 166.81 C 210.55 168.94 209.43 171.09 208.32 173.26 C 202.87 182.10 196.82 191.52 187.22 196.29 C 186.35 196.29 185.49 196.30 184.62 196.32 C 177.21 193.22 171.85 187.00 167.15 180.72 C 147.97 154.42 142.39 119.12 151.24 87.92 C 164.34 83.28 177.58 78.21 188.89 69.92 C 195.06 65.48 200.76 60.00 203.96 52.99 Z" />
<path fill="#ffffff" opacity="1.00" d=" M 18.57 56.18 C 23.92 66.72 34.27 73.26 44.43 78.53 C 51.03 81.97 58.08 84.38 65.09 86.81 C 66.38 87.10 67.41 87.88 68.16 88.94 C 68.30 91.01 68.53 93.06 68.80 95.12 C 69.59 97.71 69.53 100.45 69.77 103.12 C 71.20 114.29 70.69 125.78 68.81 136.88 C 68.56 138.91 68.46 140.98 67.87 142.95 C 67.66 144.02 67.45 145.09 67.25 146.16 C 66.54 148.81 65.89 151.48 65.21 154.14 C 64.03 158.18 62.66 162.17 61.23 166.13 C 59.94 169.12 58.63 172.10 57.22 175.03 C 52.98 183.09 48.00 191.25 40.17 196.30 C 39.38 196.29 38.59 196.29 37.80 196.28 C 36.47 195.59 35.14 194.91 33.80 194.26 C 20.67 184.15 11.85 169.34 6.41 153.88 C -0.42 135.18 -1.76 114.54 2.69 95.13 C 5.72 81.36 11.19 68.18 18.57 56.18 Z" />
<path fill="#ffffff" opacity="1.00" d=" M 772.03 79.75 C 779.01 77.86 785.72 72.98 793.27 74.92 C 797.72 76.13 799.79 80.87 799.73 85.16 C 800.08 91.78 803.55 98.47 801.20 105.03 C 798.69 111.40 788.94 112.64 785.00 106.99 C 784.61 105.69 784.19 104.40 783.77 103.12 C 783.42 100.90 783.05 98.68 782.51 96.49 C 773.22 99.41 763.54 101.43 754.82 105.87 C 749.85 108.46 745.05 112.56 744.38 118.49 C 747.53 119.57 750.78 120.33 754.04 121.04 C 755.68 121.39 757.33 121.67 759.00 121.97 C 763.40 123.19 767.83 124.34 772.15 125.86 C 780.77 128.97 789.25 133.86 794.20 141.83 C 799.51 150.81 800.96 162.37 796.94 172.13 C 794.85 177.30 790.60 181.23 786.06 184.29 C 783.15 185.70 780.24 187.14 777.17 188.19 C 776.10 188.47 775.05 188.79 774.02 189.14 C 772.34 189.45 770.67 189.71 769.03 190.16 C 761.03 191.06 752.91 191.06 744.91 190.16 C 743.29 189.69 741.62 189.40 739.98 189.07 C 738.93 188.77 737.88 188.48 736.83 188.21 C 732.25 186.76 727.68 185.08 723.70 182.33 C 720.20 179.66 717.46 175.53 717.82 170.98 C 718.09 167.29 721.02 164.62 723.83 162.59 C 725.94 162.43 728.06 162.32 730.19 162.44 C 732.56 164.15 734.84 165.98 737.07 167.86 C 738.32 168.35 739.57 168.82 740.83 169.33 C 741.85 169.48 742.89 169.64 743.95 169.81 C 745.66 170.40 747.47 170.56 749.27 170.76 C 754.11 171.99 759.16 171.37 764.10 171.24 C 765.87 170.58 767.77 170.42 769.66 170.26 L 769.35 169.83 C 770.57 169.61 771.77 169.36 773.00 169.08 C 774.10 168.48 775.22 167.90 776.36 167.34 C 777.42 166.33 778.45 165.27 779.46 164.19 C 780.05 162.17 780.37 160.09 780.30 157.98 C 778.86 151.68 773.87 147.19 768.09 144.79 C 766.08 144.15 764.07 143.54 762.09 142.88 C 760.72 142.59 759.39 142.33 758.07 141.97 C 755.06 141.37 752.06 140.73 749.11 139.92 C 747.75 139.62 746.42 139.36 745.10 139.03 C 744.07 138.68 743.05 138.33 742.04 137.97 C 741.04 137.63 740.05 137.28 739.07 136.93 C 733.23 134.75 728.02 130.15 726.55 123.90 C 723.97 113.24 727.37 100.97 736.05 93.97 C 746.37 85.76 759.88 83.93 772.03 79.75 Z" />
<path fill="#ffffff" opacity="1.00" d=" M 441.03 86.58 C 451.58 83.60 463.87 83.49 473.22 89.92 C 480.37 94.60 484.75 102.26 487.84 110.03 C 488.62 112.65 489.33 115.30 490.23 117.90 C 490.46 119.91 490.64 121.95 491.25 123.90 C 491.94 131.64 491.78 139.43 491.28 147.19 C 490.79 148.80 490.45 150.44 490.14 152.09 C 489.55 154.43 489.09 156.80 488.27 159.07 C 487.70 160.34 487.19 161.64 486.68 162.93 C 482.69 172.38 476.12 181.03 467.14 186.24 C 465.80 186.87 464.46 187.51 463.14 188.17 C 461.10 188.84 459.06 189.47 457.06 190.20 C 451.07 190.93 444.99 191.08 439.02 190.16 C 437.98 189.80 436.94 189.48 435.89 189.18 C 434.22 188.51 432.56 187.84 430.90 187.18 C 419.23 181.16 410.87 169.67 407.92 156.96 C 403.93 140.07 406.18 121.38 415.64 106.63 C 421.36 97.20 430.32 89.60 441.03 86.58 M 445.80 105.58 C 440.35 107.15 436.07 111.27 432.86 115.80 C 426.18 126.13 423.91 139.08 426.08 151.14 C 427.49 159.12 432.51 166.55 440.00 169.97 C 444.00 171.33 448.20 171.69 452.40 171.31 L 452.48 170.80 C 461.07 169.66 467.62 162.64 471.31 155.20 C 471.85 153.41 472.42 151.64 473.03 149.88 C 473.68 144.34 474.76 138.69 473.79 133.13 C 473.71 128.97 473.21 124.85 472.26 120.80 C 471.84 119.54 471.45 118.27 471.04 117.00 C 469.36 113.03 466.92 109.17 463.14 106.92 C 457.91 103.97 451.44 103.88 445.80 105.58 Z" />
<path fill="#ffffff" opacity="1.00" d=" M 677.90 92.81 C 678.73 88.49 682.98 86.28 687.00 85.75 C 691.43 86.22 695.88 89.22 696.17 94.02 C 696.85 105.70 695.35 117.39 694.85 129.06 C 693.86 144.71 695.34 160.37 695.10 176.02 C 695.19 178.73 694.04 181.18 692.44 183.29 C 688.11 186.87 680.55 186.45 677.65 181.27 C 675.03 176.26 676.54 170.39 676.05 164.99 C 675.04 147.51 675.40 129.99 676.84 112.55 C 677.56 105.99 676.77 99.31 677.90 92.81 Z" />
<path fill="#ffffff" opacity="1.00" d=" M 81.41 91.11 C 92.16 93.09 103.01 95.27 114.00 94.66 C 121.54 94.50 128.97 93.15 136.33 91.62 C 128.59 126.54 136.76 164.88 159.09 192.96 C 164.13 198.88 169.83 204.45 176.87 207.93 C 164.05 217.06 149.45 223.78 133.97 226.82 C 104.18 232.97 72.05 226.26 47.40 208.36 C 47.40 208.17 47.38 207.79 47.38 207.60 C 56.34 202.19 62.23 193.16 67.32 184.27 C 68.34 182.25 69.29 180.21 70.30 178.19 C 71.56 175.47 72.70 172.69 73.72 169.87 C 74.24 168.63 74.74 167.39 75.27 166.16 C 75.39 165.61 75.62 164.50 75.74 163.94 C 76.66 161.39 77.39 158.77 78.17 156.17 C 79.26 151.83 80.33 147.48 81.14 143.08 C 81.35 141.65 81.54 140.23 81.74 138.81 C 82.34 136.19 82.48 133.51 82.72 130.84 C 84.18 118.92 83.56 106.78 82.21 94.87 C 82.01 93.93 81.61 92.05 81.41 91.11 Z" />
</g>
</svg>
