<?xml version="1.0" encoding="UTF-8" ?>
<!DOCTYPE svg PUBLIC "-//W3C//DTD SVG 1.1//EN" "http://www.w3.org/Graphics/SVG/1.1/DTD/svg11.dtd">
<svg width="1124pt" height="434pt" viewBox="0 0 1124 434" version="1.1" xmlns="http://www.w3.org/2000/svg">
<g id="#ffffffff">
<path fill="#ffffff" opacity="1.00" d=" M 180.34 1.25 C 191.85 -0.42 203.58 -0.30 215.09 1.29 C 239.91 4.62 264.14 11.86 287.02 21.98 C 299.78 27.90 312.29 34.77 322.86 44.16 C 328.86 49.74 334.96 56.46 335.95 64.94 C 336.70 73.68 330.70 81.06 324.89 86.87 C 307.51 102.64 285.49 112.01 263.57 119.63 C 244.56 126.03 224.88 130.57 204.90 132.58 C 192.38 133.65 179.77 132.67 167.37 130.82 C 146.54 127.65 126.04 122.32 106.34 114.81 C 90.12 108.48 73.91 100.90 60.99 88.96 C 55.50 83.50 49.75 76.33 51.30 68.05 C 53.05 59.32 59.68 52.76 65.98 46.96 C 79.67 35.43 95.77 27.17 112.19 20.26 C 134.05 11.31 156.90 4.47 180.34 1.25 Z" />
<path fill="#ffffff" opacity="1.00" d=" M 356.24 81.16 C 362.85 90.55 368.10 100.87 372.60 111.43 C 387.91 147.62 392.86 188.19 386.02 226.94 C 381.05 254.16 371.33 280.76 355.87 303.83 C 349.59 313.00 342.51 321.86 333.53 328.54 C 330.13 330.75 326.38 333.52 322.10 332.91 C 316.14 331.27 311.13 327.37 306.48 323.45 C 296.04 314.00 287.67 302.49 280.66 290.33 C 265.00 262.60 256.38 230.87 256.06 199.01 C 255.82 180.54 258.46 162.10 263.29 144.30 C 284.29 137.74 304.84 129.32 323.40 117.41 C 337.01 108.31 350.35 96.89 356.24 81.16 Z" />
<path fill="#ffffff" opacity="1.00" d=" M 4.91 154.06 C 10.37 130.83 19.37 108.36 32.16 88.18 C 36.80 96.99 43.43 104.64 51.27 110.76 C 70.83 126.29 94.46 135.49 118.02 143.09 C 125.74 180.48 124.50 219.68 114.44 256.51 C 109.57 274.49 102.68 292.03 92.92 307.94 C 87.71 316.12 82.01 324.31 74.12 330.14 C 71.63 331.83 68.53 333.98 65.42 332.56 C 56.84 329.26 50.12 322.62 43.93 316.05 C 25.97 296.05 13.95 271.27 6.65 245.55 C -1.63 215.84 -2.03 184.08 4.91 154.06 Z" />
<path fill="#ffffff" opacity="1.00" d=" M 559.36 106.47 C 562.28 105.67 565.50 105.64 568.37 106.69 C 571.58 108.01 573.26 111.60 573.18 114.94 C 573.32 133.70 572.64 152.44 572.35 171.20 C 572.36 196.48 570.95 221.74 570.51 247.02 C 570.01 252.43 570.88 258.28 568.27 263.27 C 564.15 270.12 550.83 267.75 551.00 259.04 C 550.64 233.68 553.26 208.37 553.02 183.00 C 553.07 160.63 554.01 138.28 554.01 115.91 C 553.81 112.13 555.39 107.64 559.36 106.47 Z" />
<path fill="#ffffff" opacity="1.00" d=" M 820.44 106.62 C 823.58 105.60 827.17 105.59 830.25 106.88 C 833.33 108.23 834.64 111.80 834.64 114.96 C 834.81 138.99 833.65 163.00 833.71 187.02 C 832.97 209.37 832.43 231.73 831.67 254.08 C 831.60 258.56 830.89 264.11 826.38 266.31 C 822.93 267.72 818.69 267.49 815.55 265.41 C 812.88 263.54 812.36 260.02 812.33 257.00 C 812.36 236.67 813.94 216.39 814.34 196.07 C 814.43 169.07 815.30 142.08 815.50 115.09 C 815.48 111.71 816.95 107.75 820.44 106.62 Z" />
<path fill="#ffffff" opacity="1.00" d=" M 491.75 109.89 C 498.53 107.34 505.88 106.57 513.07 106.99 C 516.19 107.22 519.47 107.98 521.87 110.11 C 525.31 113.86 525.01 120.79 520.54 123.63 C 516.78 126.00 512.15 125.45 507.93 125.94 C 500.65 126.55 493.99 131.20 490.61 137.63 C 486.20 145.84 484.90 155.31 484.87 164.52 C 492.91 164.09 500.94 163.19 509.00 163.50 C 513.19 163.76 517.96 164.74 520.50 168.43 C 522.42 171.55 522.14 175.94 519.85 178.80 C 516.77 181.91 512.10 181.99 508.02 182.06 C 500.01 182.01 492.04 182.79 484.07 183.44 C 483.55 192.95 482.88 202.48 483.19 212.02 C 483.47 229.37 484.76 246.79 482.78 264.09 C 482.30 267.57 481.98 271.18 480.42 274.39 C 477.48 279.61 469.21 279.90 465.37 275.55 C 462.97 273.32 462.68 269.79 463.25 266.74 C 465.23 254.60 465.32 242.27 465.13 230.01 C 464.89 214.99 465.03 199.98 464.96 184.97 C 458.71 185.31 452.41 186.43 446.18 185.57 C 440.10 184.70 437.94 176.67 440.94 171.94 C 443.28 168.54 447.55 167.33 451.43 166.77 C 456.28 166.25 461.17 166.11 466.05 165.97 C 467.35 152.75 468.16 139.07 473.82 126.83 C 477.25 119.12 483.82 112.82 491.75 109.89 Z" />
<path fill="#ffffff" opacity="1.00" d=" M 744.68 114.69 C 751.82 109.09 761.08 107.03 770.00 106.89 C 774.02 106.85 778.34 106.93 781.90 109.05 C 787.47 112.39 786.75 122.40 780.40 124.44 C 775.15 126.44 769.26 125.05 764.02 127.15 C 756.97 129.56 752.08 135.88 749.76 142.75 C 747.09 149.69 746.47 157.18 746.25 164.54 C 752.83 164.10 759.41 163.59 766.00 163.42 C 770.69 163.39 775.78 163.47 779.82 166.18 C 783.78 168.82 784.21 174.91 781.49 178.57 C 778.64 181.78 774.00 181.99 770.02 182.06 C 761.78 182.02 753.57 182.72 745.38 183.49 C 745.06 189.66 744.96 195.85 744.64 202.03 C 744.10 225.21 747.52 248.73 742.90 271.67 C 741.87 278.30 733.14 280.51 728.18 276.78 C 725.00 274.72 723.88 270.58 724.67 267.01 C 726.39 256.43 726.75 245.69 726.64 234.99 C 726.47 218.33 726.30 201.67 726.32 185.01 C 719.97 185.27 713.54 186.54 707.21 185.48 C 699.94 184.06 698.90 172.51 705.24 169.21 C 712.07 165.50 720.14 166.55 727.61 165.93 C 728.35 155.66 729.33 145.31 732.11 135.35 C 734.36 127.55 738.06 119.71 744.68 114.69 Z" />
<path fill="#ffffff" opacity="1.00" d=" M 878.36 117.38 C 885.06 114.66 893.24 119.96 893.62 127.12 C 894.38 133.57 888.41 139.68 881.98 139.34 C 876.40 139.31 871.14 134.68 870.81 129.04 C 870.21 124.01 873.63 119.00 878.36 117.38 Z" />
<path fill="#ffffff" opacity="1.00" d=" M 142.90 150.06 C 161.30 154.07 180.09 157.00 198.98 156.48 C 212.25 156.01 225.39 153.84 238.35 151.07 C 231.21 183.83 231.68 218.31 240.30 250.75 C 248.32 280.49 262.11 309.12 282.92 332.05 C 290.40 340.18 298.98 347.48 308.94 352.39 C 287.90 367.66 263.73 378.56 238.38 384.27 C 206.79 391.44 173.42 390.47 142.27 381.64 C 120.69 375.53 100.27 365.48 82.06 352.40 C 92.71 346.74 100.84 337.45 107.75 327.75 C 117.12 314.63 124.17 300.00 129.85 284.94 C 145.80 242.13 150.31 195.14 142.90 150.06 Z" />
<path fill="#ffffff" opacity="1.00" d=" M 974.27 153.29 C 979.17 151.44 985.70 150.06 989.89 154.14 C 993.21 157.38 992.30 162.33 993.23 166.46 C 993.97 171.67 996.24 177.16 994.24 182.35 C 991.81 187.96 983.87 189.56 979.26 185.73 C 976.27 182.56 976.28 177.88 975.40 173.87 C 969.68 174.82 964.29 177.05 958.74 178.62 C 951.64 180.67 944.18 183.48 939.42 189.44 C 937.85 191.23 937.38 193.60 936.99 195.87 C 948.17 199.05 959.99 200.26 970.57 205.42 C 979.32 209.38 987.07 216.42 990.17 225.70 C 993.31 235.22 993.09 246.61 986.87 254.87 C 981.58 261.71 973.22 265.30 965.02 267.25 C 950.40 270.26 934.72 269.07 921.05 262.89 C 916.06 260.58 910.79 256.71 910.14 250.82 C 908.99 244.82 915.03 238.87 920.96 239.70 C 925.21 240.75 927.58 245.11 931.78 246.31 C 942.68 249.63 954.66 250.24 965.55 246.57 C 968.73 245.44 972.13 243.25 972.83 239.71 C 973.60 234.24 970.95 228.66 966.46 225.53 C 958.76 219.95 948.92 219.43 940.05 216.92 C 933.58 215.19 926.60 213.16 922.12 207.85 C 917.11 201.47 917.34 192.65 919.22 185.15 C 921.70 175.80 929.53 168.79 938.30 165.28 C 950.01 160.47 962.60 158.22 974.27 153.29 Z" />
<path fill="#ffffff" opacity="1.00" d=" M 636.39 162.63 C 645.69 160.94 656.01 161.40 664.04 166.91 C 674.42 173.86 679.58 186.18 681.93 198.03 C 684.66 214.43 683.28 232.20 674.80 246.82 C 670.00 255.10 662.92 262.42 653.88 265.96 C 642.35 270.38 628.65 269.61 618.14 262.91 C 608.23 256.50 601.22 246.00 598.55 234.55 C 594.58 217.86 596.74 199.50 605.71 184.74 C 612.27 173.54 623.35 164.64 636.39 162.63 M 637.40 182.54 C 629.51 184.65 623.83 191.39 620.60 198.59 C 616.28 207.81 615.05 218.40 616.68 228.42 C 618.13 235.60 622.07 242.69 628.65 246.32 C 636.46 250.93 646.83 249.27 653.77 243.78 C 660.09 238.80 663.89 231.01 664.65 223.06 C 665.55 214.16 665.22 205.00 662.74 196.36 C 661.36 191.93 659.17 187.42 655.21 184.78 C 650.13 181.04 643.27 180.94 637.40 182.54 Z" />
<path fill="#ffffff" opacity="1.00" d=" M 875.44 163.65 C 880.84 161.41 887.90 164.93 888.42 171.00 C 888.94 183.35 887.32 195.67 886.93 208.01 C 886.10 223.35 887.44 238.70 887.30 254.04 C 887.49 259.06 883.08 263.70 878.00 263.44 C 872.77 263.90 867.97 259.37 868.22 254.11 C 868.13 239.09 867.08 224.06 867.74 209.03 C 868.25 197.01 869.51 185.02 869.44 172.97 C 869.26 169.03 871.61 164.93 875.44 163.65 Z" />
</g>
</svg>
